<svg width="402" height="392" viewBox="0 0 402 392" fill="none" xmlns="http://www.w3.org/2000/svg">
<g clip-path="url(#clip0_999_2070)">
<rect width="402" height="1148" rx="48" fill="white"/>
<rect width="402" height="118" fill="white"/>
<path d="M20 78.3105H36M20 85.6903H29.4079" stroke="#333333" stroke-width="2" stroke-linecap="round" stroke-linejoin="round"/>
<path d="M169.26 87.5V77.676H165.948V76.3H174.252V77.676H170.956V87.5H169.26ZM177.198 87.692C176.526 87.692 175.971 87.58 175.534 87.356C175.096 87.132 174.771 86.8387 174.558 86.476C174.344 86.1027 174.238 85.6973 174.238 85.26C174.238 84.492 174.536 83.884 175.134 83.436C175.731 82.988 176.584 82.764 177.694 82.764H179.774V82.62C179.774 82.0013 179.603 81.5373 179.262 81.228C178.931 80.9187 178.499 80.764 177.966 80.764C177.496 80.764 177.086 80.8813 176.734 81.116C176.392 81.34 176.184 81.676 176.11 82.124H174.414C174.467 81.548 174.659 81.0573 174.99 80.652C175.331 80.236 175.758 79.9213 176.27 79.708C176.792 79.484 177.363 79.372 177.982 79.372C179.091 79.372 179.95 79.6653 180.558 80.252C181.166 80.828 181.47 81.6173 181.47 82.62V87.5H179.998L179.854 86.14C179.63 86.5773 179.304 86.9453 178.878 87.244C178.451 87.5427 177.891 87.692 177.198 87.692ZM177.534 86.316C177.992 86.316 178.376 86.2093 178.686 85.996C179.006 85.772 179.251 85.4787 179.422 85.116C179.603 84.7533 179.715 84.3533 179.758 83.916H177.87C177.198 83.916 176.718 84.0333 176.43 84.268C176.152 84.5027 176.014 84.796 176.014 85.148C176.014 85.5107 176.147 85.7987 176.414 86.012C176.691 86.2147 177.064 86.316 177.534 86.316ZM182.679 87.5L185.495 83.532L182.679 79.564H184.487L186.615 82.604L188.727 79.564H190.551L187.735 83.532L190.551 87.5H188.727L186.615 84.46L184.487 87.5H182.679ZM195.179 85.068C194.763 85.068 194.379 85.02 194.027 84.924L193.339 85.596C193.457 85.6707 193.601 85.7347 193.771 85.788C193.942 85.8413 194.182 85.8893 194.491 85.932C194.801 85.9747 195.222 86.0173 195.755 86.06C196.811 86.156 197.574 86.412 198.043 86.828C198.513 87.2333 198.747 87.7773 198.747 88.46C198.747 88.9293 198.619 89.372 198.363 89.788C198.118 90.2147 197.729 90.556 197.195 90.812C196.673 91.0787 196.001 91.212 195.179 91.212C194.07 91.212 193.169 90.9987 192.475 90.572C191.793 90.156 191.451 89.5213 191.451 88.668C191.451 88.3373 191.537 88.0067 191.707 87.676C191.889 87.356 192.171 87.052 192.555 86.764C192.331 86.668 192.134 86.5667 191.963 86.46C191.803 86.3427 191.659 86.2253 191.531 86.108V85.724L192.907 84.316C192.289 83.7827 191.979 83.084 191.979 82.22C191.979 81.6973 192.102 81.2227 192.347 80.796C192.603 80.3587 192.971 80.012 193.451 79.756C193.931 79.5 194.507 79.372 195.179 79.372C195.627 79.372 196.043 79.436 196.427 79.564H199.387V80.684L197.979 80.764C198.235 81.2013 198.363 81.6867 198.363 82.22C198.363 82.7533 198.235 83.2333 197.979 83.66C197.734 84.0867 197.371 84.428 196.891 84.684C196.422 84.94 195.851 85.068 195.179 85.068ZM195.179 83.74C195.67 83.74 196.065 83.612 196.363 83.356C196.673 83.0893 196.827 82.716 196.827 82.236C196.827 81.7453 196.673 81.372 196.363 81.116C196.065 80.86 195.67 80.732 195.179 80.732C194.678 80.732 194.273 80.86 193.963 81.116C193.665 81.372 193.515 81.7453 193.515 82.236C193.515 82.716 193.665 83.0893 193.963 83.356C194.273 83.612 194.678 83.74 195.179 83.74ZM193.051 88.508C193.051 88.9667 193.254 89.308 193.659 89.532C194.065 89.7667 194.571 89.884 195.179 89.884C195.766 89.884 196.241 89.756 196.603 89.5C196.966 89.2547 197.147 88.924 197.147 88.508C197.147 88.1987 197.025 87.932 196.779 87.708C196.534 87.4947 196.07 87.3613 195.387 87.308C194.875 87.276 194.422 87.228 194.027 87.164C193.654 87.3667 193.398 87.5853 193.259 87.82C193.121 88.0547 193.051 88.284 193.051 88.508ZM200.9 91.02V79.564H202.42L202.596 80.796C202.852 80.4227 203.204 80.092 203.652 79.804C204.1 79.516 204.676 79.372 205.38 79.372C206.148 79.372 206.825 79.5533 207.412 79.916C207.999 80.2787 208.457 80.7747 208.788 81.404C209.129 82.0333 209.3 82.748 209.3 83.548C209.3 84.348 209.129 85.0627 208.788 85.692C208.457 86.3107 207.999 86.8013 207.412 87.164C206.825 87.516 206.143 87.692 205.364 87.692C204.745 87.692 204.196 87.5693 203.716 87.324C203.247 87.0787 202.873 86.732 202.596 86.284V91.02H200.9ZM205.076 86.22C205.801 86.22 206.399 85.9747 206.868 85.484C207.337 84.9827 207.572 84.332 207.572 83.532C207.572 83.0093 207.465 82.5453 207.252 82.14C207.039 81.7347 206.745 81.42 206.372 81.196C205.999 80.9613 205.567 80.844 205.076 80.844C204.351 80.844 203.753 81.0947 203.284 81.596C202.825 82.0973 202.596 82.7427 202.596 83.532C202.596 84.332 202.825 84.9827 203.284 85.484C203.753 85.9747 204.351 86.22 205.076 86.22ZM214.15 87.5C213.371 87.5 212.753 87.3133 212.294 86.94C211.835 86.556 211.606 85.8787 211.606 84.908V80.988H210.246V79.564H211.606L211.814 77.548H213.302V79.564H215.542V80.988H213.302V84.908C213.302 85.3453 213.393 85.6493 213.574 85.82C213.766 85.98 214.091 86.06 214.55 86.06H215.462V87.5H214.15Z" fill="#1A1A1A"/>
<path d="M224.5 80L228.5 84L232.5 80" stroke="#1A1A1A" stroke-width="1.33333" stroke-linecap="round" stroke-linejoin="round"/>
<g clip-path="url(#clip1_999_2070)">
<path d="M374 72C379.523 72 384 76.477 384 82C384 87.523 379.523 92 374 92H366C365.47 92 364.961 91.7893 364.586 91.4142C364.211 91.0391 364 90.5304 364 90V82C364 76.477 368.477 72 374 72ZM374 74C371.878 74 369.843 74.8429 368.343 76.3431C366.843 77.8434 366 79.8783 366 82V90H374C376.122 90 378.157 89.1571 379.657 87.6569C381.157 86.1566 382 84.1217 382 82C382 79.8783 381.157 77.8434 379.657 76.3431C378.157 74.8429 376.122 74 374 74Z" fill="#333333"/>
<path d="M374.722 78.9267C374.534 78.7392 374.28 78.6338 374.015 78.6338C373.749 78.6338 373.495 78.7392 373.308 78.9267C373.12 79.1143 373.015 79.3686 373.015 79.6338V81.6338H371.015C370.749 81.6338 370.495 81.7392 370.308 81.9267C370.12 82.1143 370.015 82.3686 370.015 82.6338C370.015 82.8991 370.12 83.1534 370.308 83.341C370.495 83.5285 370.749 83.6338 371.015 83.6338H373.015V85.6338C373.015 85.8991 373.12 86.1534 373.308 86.341C373.495 86.5285 373.749 86.6338 374.015 86.6338C374.28 86.6338 374.534 86.5285 374.722 86.341C374.909 86.1534 375.015 85.8991 375.015 85.6338V83.6338H377.015C377.28 83.6338 377.534 83.5285 377.722 83.341C377.909 83.1534 378.015 82.8991 378.015 82.6338C378.015 82.3686 377.909 82.1143 377.722 81.9267C377.534 81.7392 377.28 81.6338 377.015 81.6338H375.015V79.6338C375.015 79.3686 374.909 79.1143 374.722 78.9267Z" fill="#333333"/>
</g>
<rect x="139" y="14" width="124" height="36" rx="18" fill="#E8E8E8"/>
<g filter="url(#filter0_d_999_2070)">
<path d="M143 172.7C143 161.769 143 156.303 145.295 152.205C146.917 149.308 149.308 146.917 152.205 145.295C156.303 143 161.769 143 172.7 143H379.4C381.829 143 383.044 143 383.954 143.51C384.598 143.87 385.13 144.402 385.49 145.046C386 145.956 386 147.171 386 149.6V208.3C386 219.231 386 224.697 383.705 228.795C382.083 231.692 379.692 234.083 376.795 235.705C372.697 238 367.231 238 356.3 238H172.7C161.769 238 156.303 238 152.205 235.705C149.308 234.083 146.917 231.692 145.295 228.795C143 224.697 143 219.231 143 208.3V172.7Z" fill="#F5F5F5" shape-rendering="crispEdges"/>
<path d="M160.68 165.516C160.447 165.516 160.251 165.441 160.092 165.292C159.943 165.133 159.868 164.937 159.868 164.704C159.868 164.48 159.943 164.293 160.092 164.144C160.251 163.995 160.447 163.92 160.68 163.92C160.904 163.92 161.095 163.995 161.254 164.144C161.413 164.293 161.492 164.48 161.492 164.704C161.492 164.937 161.413 165.133 161.254 165.292C161.095 165.441 160.904 165.516 160.68 165.516ZM160.092 174V167.056H161.268V174H160.092ZM170.143 174.168C169.48 174.168 168.892 174.019 168.379 173.72C167.865 173.412 167.459 172.987 167.161 172.446C166.871 171.905 166.727 171.265 166.727 170.528C166.727 169.8 166.871 169.165 167.161 168.624C167.45 168.073 167.851 167.649 168.365 167.35C168.887 167.042 169.489 166.888 170.171 166.888C170.843 166.888 171.421 167.042 171.907 167.35C172.401 167.649 172.779 168.045 173.041 168.54C173.302 169.035 173.433 169.567 173.433 170.136C173.433 170.239 173.428 170.341 173.419 170.444C173.419 170.547 173.419 170.663 173.419 170.794H167.889C167.917 171.326 168.038 171.769 168.253 172.124C168.477 172.469 168.752 172.731 169.079 172.908C169.415 173.085 169.769 173.174 170.143 173.174C170.628 173.174 171.034 173.062 171.361 172.838C171.687 172.614 171.925 172.311 172.075 171.928H173.237C173.05 172.572 172.691 173.109 172.159 173.538C171.636 173.958 170.964 174.168 170.143 174.168ZM170.143 167.882C169.583 167.882 169.083 168.055 168.645 168.4C168.215 168.736 167.968 169.231 167.903 169.884H172.271C172.243 169.259 172.028 168.769 171.627 168.414C171.225 168.059 170.731 167.882 170.143 167.882ZM177.301 174.168C176.723 174.168 176.242 174.07 175.859 173.874C175.477 173.678 175.192 173.417 175.005 173.09C174.819 172.763 174.725 172.409 174.725 172.026C174.725 171.317 174.996 170.771 175.537 170.388C176.079 170.005 176.816 169.814 177.749 169.814H179.625V169.73C179.625 169.123 179.467 168.666 179.149 168.358C178.832 168.041 178.407 167.882 177.875 167.882C177.418 167.882 177.021 167.999 176.685 168.232C176.359 168.456 176.153 168.787 176.069 169.226H174.865C174.912 168.722 175.08 168.297 175.369 167.952C175.668 167.607 176.037 167.345 176.475 167.168C176.914 166.981 177.381 166.888 177.875 166.888C178.846 166.888 179.574 167.149 180.059 167.672C180.554 168.185 180.801 168.871 180.801 169.73V174H179.751L179.681 172.754C179.485 173.146 179.196 173.482 178.813 173.762C178.44 174.033 177.936 174.168 177.301 174.168ZM177.483 173.174C177.931 173.174 178.314 173.057 178.631 172.824C178.958 172.591 179.205 172.287 179.373 171.914C179.541 171.541 179.625 171.149 179.625 170.738V170.724H177.847C177.157 170.724 176.667 170.845 176.377 171.088C176.097 171.321 175.957 171.615 175.957 171.97C175.957 172.334 176.088 172.628 176.349 172.852C176.62 173.067 176.998 173.174 177.483 173.174ZM182.566 174V167.056H183.63L183.728 168.386C183.942 167.929 184.269 167.565 184.708 167.294C185.146 167.023 185.688 166.888 186.332 166.888V168.12H186.01C185.599 168.12 185.221 168.195 184.876 168.344C184.53 168.484 184.255 168.727 184.05 169.072C183.844 169.417 183.742 169.893 183.742 170.5V174H182.566ZM187.652 174V167.056H188.716L188.786 168.302C189.01 167.863 189.332 167.518 189.752 167.266C190.172 167.014 190.648 166.888 191.18 166.888C192.001 166.888 192.654 167.14 193.14 167.644C193.634 168.139 193.882 168.904 193.882 169.94V174H192.706V170.066C192.706 168.619 192.108 167.896 190.914 167.896C190.316 167.896 189.817 168.115 189.416 168.554C189.024 168.983 188.828 169.599 188.828 170.402V174H187.652ZM200.25 174L204.142 165.208H198.766V164.2H205.346V165.082L201.496 174H200.25ZM207.715 174L211.607 165.208H206.231V164.2H212.811V165.082L208.961 174H207.715ZM214.298 174V163.92H215.474V169.982L218.316 167.056H219.758L216.678 170.192L220.15 174H218.652L215.474 170.402V174H214.298ZM225.058 174V167.056H226.122L226.206 168.064C226.43 167.691 226.728 167.401 227.102 167.196C227.475 166.991 227.895 166.888 228.362 166.888C228.912 166.888 229.384 167 229.776 167.224C230.177 167.448 230.485 167.789 230.7 168.246C230.942 167.826 231.274 167.495 231.694 167.252C232.123 167.009 232.585 166.888 233.08 166.888C233.91 166.888 234.573 167.14 235.068 167.644C235.562 168.139 235.81 168.904 235.81 169.94V174H234.648V170.066C234.648 169.347 234.503 168.806 234.214 168.442C233.924 168.078 233.509 167.896 232.968 167.896C232.408 167.896 231.941 168.115 231.568 168.554C231.204 168.983 231.022 169.599 231.022 170.402V174H229.846V170.066C229.846 169.347 229.701 168.806 229.412 168.442C229.122 168.078 228.707 167.896 228.166 167.896C227.615 167.896 227.153 168.115 226.78 168.554C226.416 168.983 226.234 169.599 226.234 170.402V174H225.058ZM240.745 174.168C240.092 174.168 239.504 174.019 238.981 173.72C238.459 173.421 238.043 173.001 237.735 172.46C237.437 171.909 237.287 171.265 237.287 170.528C237.287 169.791 237.441 169.151 237.749 168.61C238.057 168.059 238.473 167.635 238.995 167.336C239.527 167.037 240.12 166.888 240.773 166.888C241.427 166.888 242.015 167.037 242.537 167.336C243.06 167.635 243.471 168.059 243.769 168.61C244.077 169.151 244.231 169.791 244.231 170.528C244.231 171.265 244.077 171.909 243.769 172.46C243.461 173.001 243.041 173.421 242.509 173.72C241.987 174.019 241.399 174.168 240.745 174.168ZM240.745 173.16C241.147 173.16 241.52 173.062 241.865 172.866C242.211 172.67 242.491 172.376 242.705 171.984C242.92 171.592 243.027 171.107 243.027 170.528C243.027 169.949 242.92 169.464 242.705 169.072C242.5 168.68 242.225 168.386 241.879 168.19C241.534 167.994 241.165 167.896 240.773 167.896C240.372 167.896 239.999 167.994 239.653 168.19C239.308 168.386 239.028 168.68 238.813 169.072C238.599 169.464 238.491 169.949 238.491 170.528C238.491 171.107 238.599 171.592 238.813 171.984C239.028 172.376 239.303 172.67 239.639 172.866C239.985 173.062 240.353 173.16 240.745 173.16ZM245.866 174V167.056H246.93L247 168.302C247.224 167.863 247.546 167.518 247.966 167.266C248.386 167.014 248.862 166.888 249.394 166.888C250.216 166.888 250.869 167.14 251.354 167.644C251.849 168.139 252.096 168.904 252.096 169.94V174H250.92V170.066C250.92 168.619 250.323 167.896 249.128 167.896C248.531 167.896 248.032 168.115 247.63 168.554C247.238 168.983 247.042 169.599 247.042 170.402V174H245.866ZM256.622 174C255.987 174 255.488 173.846 255.124 173.538C254.76 173.23 254.578 172.675 254.578 171.872V168.05H253.374V167.056H254.578L254.732 165.39H255.754V167.056H257.798V168.05H255.754V171.872C255.754 172.311 255.843 172.609 256.02 172.768C256.197 172.917 256.51 172.992 256.958 172.992H257.686V174H256.622ZM259.292 174V163.92H260.468V168.246C260.702 167.817 261.033 167.485 261.462 167.252C261.892 167.009 262.358 166.888 262.862 166.888C263.665 166.888 264.309 167.14 264.794 167.644C265.28 168.139 265.522 168.904 265.522 169.94V174H264.36V170.066C264.36 168.619 263.777 167.896 262.61 167.896C262.004 167.896 261.495 168.115 261.084 168.554C260.674 168.983 260.468 169.599 260.468 170.402V174H259.292ZM267.304 174V163.92H268.48V174H267.304ZM271.163 177.08L272.885 173.328H272.479L269.721 167.056H270.995L273.291 172.46L275.727 167.056H276.945L272.395 177.08H271.163ZM284.202 174.168C283.623 174.168 283.142 174.07 282.76 173.874C282.377 173.678 282.092 173.417 281.906 173.09C281.719 172.763 281.626 172.409 281.626 172.026C281.626 171.317 281.896 170.771 282.438 170.388C282.979 170.005 283.716 169.814 284.65 169.814H286.526V169.73C286.526 169.123 286.367 168.666 286.05 168.358C285.732 168.041 285.308 167.882 284.776 167.882C284.318 167.882 283.922 167.999 283.586 168.232C283.259 168.456 283.054 168.787 282.97 169.226H281.766C281.812 168.722 281.98 168.297 282.27 167.952C282.568 167.607 282.937 167.345 283.376 167.168C283.814 166.981 284.281 166.888 284.776 166.888C285.746 166.888 286.474 167.149 286.96 167.672C287.454 168.185 287.702 168.871 287.702 169.73V174H286.652L286.582 172.754C286.386 173.146 286.096 173.482 285.714 173.762C285.34 174.033 284.836 174.168 284.202 174.168ZM284.384 173.174C284.832 173.174 285.214 173.057 285.532 172.824C285.858 172.591 286.106 172.287 286.274 171.914C286.442 171.541 286.526 171.149 286.526 170.738V170.724H284.748C284.057 170.724 283.567 170.845 283.278 171.088C282.998 171.321 282.858 171.615 282.858 171.97C282.858 172.334 282.988 172.628 283.25 172.852C283.52 173.067 283.898 173.174 284.384 173.174ZM292.126 174.168C291.295 174.168 290.605 173.958 290.054 173.538C289.503 173.118 289.181 172.549 289.088 171.83H290.292C290.367 172.194 290.558 172.511 290.866 172.782C291.183 173.043 291.608 173.174 292.14 173.174C292.635 173.174 292.999 173.071 293.232 172.866C293.465 172.651 293.582 172.399 293.582 172.11C293.582 171.69 293.428 171.41 293.12 171.27C292.821 171.13 292.397 171.004 291.846 170.892C291.473 170.817 291.099 170.71 290.726 170.57C290.353 170.43 290.04 170.234 289.788 169.982C289.536 169.721 289.41 169.38 289.41 168.96C289.41 168.353 289.634 167.859 290.082 167.476C290.539 167.084 291.155 166.888 291.93 166.888C292.667 166.888 293.269 167.075 293.736 167.448C294.212 167.812 294.487 168.335 294.562 169.016H293.4C293.353 168.661 293.199 168.386 292.938 168.19C292.686 167.985 292.345 167.882 291.916 167.882C291.496 167.882 291.169 167.971 290.936 168.148C290.712 168.325 290.6 168.559 290.6 168.848C290.6 169.128 290.745 169.347 291.034 169.506C291.333 169.665 291.734 169.8 292.238 169.912C292.667 170.005 293.073 170.122 293.456 170.262C293.848 170.393 294.165 170.593 294.408 170.864C294.66 171.125 294.786 171.508 294.786 172.012C294.795 172.637 294.557 173.155 294.072 173.566C293.596 173.967 292.947 174.168 292.126 174.168ZM302.481 174.168C301.902 174.168 301.422 174.07 301.039 173.874C300.656 173.678 300.372 173.417 300.185 173.09C299.998 172.763 299.905 172.409 299.905 172.026C299.905 171.317 300.176 170.771 300.717 170.388C301.258 170.005 301.996 169.814 302.929 169.814H304.805V169.73C304.805 169.123 304.646 168.666 304.329 168.358C304.012 168.041 303.587 167.882 303.055 167.882C302.598 167.882 302.201 167.999 301.865 168.232C301.538 168.456 301.333 168.787 301.249 169.226H300.045C300.092 168.722 300.26 168.297 300.549 167.952C300.848 167.607 301.216 167.345 301.655 167.168C302.094 166.981 302.56 166.888 303.055 166.888C304.026 166.888 304.754 167.149 305.239 167.672C305.734 168.185 305.981 168.871 305.981 169.73V174H304.931L304.861 172.754C304.665 173.146 304.376 173.482 303.993 173.762C303.62 174.033 303.116 174.168 302.481 174.168ZM302.663 173.174C303.111 173.174 303.494 173.057 303.811 172.824C304.138 172.591 304.385 172.287 304.553 171.914C304.721 171.541 304.805 171.149 304.805 170.738V170.724H303.027C302.336 170.724 301.846 170.845 301.557 171.088C301.277 171.321 301.137 171.615 301.137 171.97C301.137 172.334 301.268 172.628 301.529 172.852C301.8 173.067 302.178 173.174 302.663 173.174ZM307.745 174V167.056H308.809L308.879 168.302C309.103 167.863 309.425 167.518 309.845 167.266C310.265 167.014 310.741 166.888 311.273 166.888C312.095 166.888 312.748 167.14 313.233 167.644C313.728 168.139 313.975 168.904 313.975 169.94V174H312.799V170.066C312.799 168.619 312.202 167.896 311.007 167.896C310.41 167.896 309.911 168.115 309.509 168.554C309.117 168.983 308.921 169.599 308.921 170.402V174H307.745ZM319.462 174V167.056H320.526L320.596 168.302C320.82 167.863 321.142 167.518 321.562 167.266C321.982 167.014 322.458 166.888 322.99 166.888C323.811 166.888 324.465 167.14 324.95 167.644C325.445 168.139 325.692 168.904 325.692 169.94V174H324.516V170.066C324.516 168.619 323.919 167.896 322.724 167.896C322.127 167.896 321.627 168.115 321.226 168.554C320.834 168.983 320.638 169.599 320.638 170.402V174H319.462ZM328.025 177.08L329.747 173.328H329.341L326.583 167.056H327.857L330.153 172.46L332.589 167.056H333.807L329.257 177.08H328.025ZM337.298 174.168C336.467 174.168 335.777 173.958 335.226 173.538C334.675 173.118 334.353 172.549 334.26 171.83H335.464C335.539 172.194 335.73 172.511 336.038 172.782C336.355 173.043 336.78 173.174 337.312 173.174C337.807 173.174 338.171 173.071 338.404 172.866C338.637 172.651 338.754 172.399 338.754 172.11C338.754 171.69 338.6 171.41 338.292 171.27C337.993 171.13 337.569 171.004 337.018 170.892C336.645 170.817 336.271 170.71 335.898 170.57C335.525 170.43 335.212 170.234 334.96 169.982C334.708 169.721 334.582 169.38 334.582 168.96C334.582 168.353 334.806 167.859 335.254 167.476C335.711 167.084 336.327 166.888 337.102 166.888C337.839 166.888 338.441 167.075 338.908 167.448C339.384 167.812 339.659 168.335 339.734 169.016H338.572C338.525 168.661 338.371 168.386 338.11 168.19C337.858 167.985 337.517 167.882 337.088 167.882C336.668 167.882 336.341 167.971 336.108 168.148C335.884 168.325 335.772 168.559 335.772 168.848C335.772 169.128 335.917 169.347 336.206 169.506C336.505 169.665 336.906 169.8 337.41 169.912C337.839 170.005 338.245 170.122 338.628 170.262C339.02 170.393 339.337 170.593 339.58 170.864C339.832 171.125 339.958 171.508 339.958 172.012C339.967 172.637 339.729 173.155 339.244 173.566C338.768 173.967 338.119 174.168 337.298 174.168ZM344.83 174.168C344.167 174.168 343.57 174.019 343.038 173.72C342.515 173.412 342.1 172.987 341.792 172.446C341.493 171.895 341.344 171.256 341.344 170.528C341.344 169.8 341.493 169.165 341.792 168.624C342.1 168.073 342.515 167.649 343.038 167.35C343.57 167.042 344.167 166.888 344.83 166.888C345.651 166.888 346.342 167.103 346.902 167.532C347.471 167.961 347.831 168.535 347.98 169.254H346.776C346.683 168.825 346.454 168.493 346.09 168.26C345.726 168.017 345.301 167.896 344.816 167.896C344.424 167.896 344.055 167.994 343.71 168.19C343.365 168.386 343.085 168.68 342.87 169.072C342.655 169.464 342.548 169.949 342.548 170.528C342.548 171.107 342.655 171.592 342.87 171.984C343.085 172.376 343.365 172.675 343.71 172.88C344.055 173.076 344.424 173.174 344.816 173.174C345.301 173.174 345.726 173.057 346.09 172.824C346.454 172.581 346.683 172.241 346.776 171.802H347.98C347.84 172.502 347.485 173.071 346.916 173.51C346.347 173.949 345.651 174.168 344.83 174.168ZM163.158 195.168C162.495 195.168 161.898 195.019 161.366 194.72C160.843 194.412 160.428 193.987 160.12 193.446C159.821 192.895 159.672 192.256 159.672 191.528C159.672 190.8 159.821 190.165 160.12 189.624C160.428 189.073 160.843 188.649 161.366 188.35C161.898 188.042 162.495 187.888 163.158 187.888C163.979 187.888 164.67 188.103 165.23 188.532C165.799 188.961 166.159 189.535 166.308 190.254H165.104C165.011 189.825 164.782 189.493 164.418 189.26C164.054 189.017 163.629 188.896 163.144 188.896C162.752 188.896 162.383 188.994 162.038 189.19C161.693 189.386 161.413 189.68 161.198 190.072C160.983 190.464 160.876 190.949 160.876 191.528C160.876 192.107 160.983 192.592 161.198 192.984C161.413 193.376 161.693 193.675 162.038 193.88C162.383 194.076 162.752 194.174 163.144 194.174C163.629 194.174 164.054 194.057 164.418 193.824C164.782 193.581 165.011 193.241 165.104 192.802H166.308C166.168 193.502 165.813 194.071 165.244 194.51C164.675 194.949 163.979 195.168 163.158 195.168ZM171.114 195.168C170.461 195.168 169.873 195.019 169.35 194.72C168.828 194.421 168.412 194.001 168.104 193.46C167.806 192.909 167.656 192.265 167.656 191.528C167.656 190.791 167.81 190.151 168.118 189.61C168.426 189.059 168.842 188.635 169.364 188.336C169.896 188.037 170.489 187.888 171.142 187.888C171.796 187.888 172.384 188.037 172.906 188.336C173.429 188.635 173.84 189.059 174.138 189.61C174.446 190.151 174.6 190.791 174.6 191.528C174.6 192.265 174.446 192.909 174.138 193.46C173.83 194.001 173.41 194.421 172.878 194.72C172.356 195.019 171.768 195.168 171.114 195.168ZM171.114 194.16C171.516 194.16 171.889 194.062 172.234 193.866C172.58 193.67 172.86 193.376 173.074 192.984C173.289 192.592 173.396 192.107 173.396 191.528C173.396 190.949 173.289 190.464 173.074 190.072C172.869 189.68 172.594 189.386 172.248 189.19C171.903 188.994 171.534 188.896 171.142 188.896C170.741 188.896 170.368 188.994 170.022 189.19C169.677 189.386 169.397 189.68 169.182 190.072C168.968 190.464 168.86 190.949 168.86 191.528C168.86 192.107 168.968 192.592 169.182 192.984C169.397 193.376 169.672 193.67 170.008 193.866C170.354 194.062 170.722 194.16 171.114 194.16ZM176.236 195V188.056H177.3L177.398 189.386C177.612 188.929 177.939 188.565 178.378 188.294C178.816 188.023 179.358 187.888 180.002 187.888V189.12H179.68C179.269 189.12 178.891 189.195 178.546 189.344C178.2 189.484 177.925 189.727 177.72 190.072C177.514 190.417 177.412 190.893 177.412 191.5V195H176.236ZM181.321 198.08V188.056H182.385L182.497 189.204C182.721 188.868 183.039 188.565 183.449 188.294C183.869 188.023 184.401 187.888 185.045 187.888C185.736 187.888 186.338 188.047 186.851 188.364C187.365 188.681 187.761 189.115 188.041 189.666C188.331 190.217 188.475 190.842 188.475 191.542C188.475 192.242 188.331 192.867 188.041 193.418C187.761 193.959 187.36 194.389 186.837 194.706C186.324 195.014 185.722 195.168 185.031 195.168C184.462 195.168 183.953 195.051 183.505 194.818C183.067 194.585 182.731 194.258 182.497 193.838V198.08H181.321ZM184.905 194.146C185.372 194.146 185.783 194.039 186.137 193.824C186.492 193.6 186.772 193.292 186.977 192.9C187.183 192.508 187.285 192.051 187.285 191.528C187.285 191.005 187.183 190.548 186.977 190.156C186.772 189.764 186.492 189.461 186.137 189.246C185.783 189.022 185.372 188.91 184.905 188.91C184.439 188.91 184.028 189.022 183.673 189.246C183.319 189.461 183.039 189.764 182.833 190.156C182.628 190.548 182.525 191.005 182.525 191.528C182.525 192.051 182.628 192.508 182.833 192.9C183.039 193.292 183.319 193.6 183.673 193.824C184.028 194.039 184.439 194.146 184.905 194.146ZM192.772 195.168C191.942 195.168 191.251 194.958 190.7 194.538C190.15 194.118 189.828 193.549 189.734 192.83H190.938C191.013 193.194 191.204 193.511 191.512 193.782C191.83 194.043 192.254 194.174 192.786 194.174C193.281 194.174 193.645 194.071 193.878 193.866C194.112 193.651 194.228 193.399 194.228 193.11C194.228 192.69 194.074 192.41 193.766 192.27C193.468 192.13 193.043 192.004 192.492 191.892C192.119 191.817 191.746 191.71 191.372 191.57C190.999 191.43 190.686 191.234 190.434 190.982C190.182 190.721 190.056 190.38 190.056 189.96C190.056 189.353 190.28 188.859 190.728 188.476C191.186 188.084 191.802 187.888 192.576 187.888C193.314 187.888 193.916 188.075 194.382 188.448C194.858 188.812 195.134 189.335 195.208 190.016H194.046C194 189.661 193.846 189.386 193.584 189.19C193.332 188.985 192.992 188.882 192.562 188.882C192.142 188.882 191.816 188.971 191.582 189.148C191.358 189.325 191.246 189.559 191.246 189.848C191.246 190.128 191.391 190.347 191.68 190.506C191.979 190.665 192.38 190.8 192.884 190.912C193.314 191.005 193.72 191.122 194.102 191.262C194.494 191.393 194.812 191.593 195.054 191.864C195.306 192.125 195.432 192.508 195.432 193.012C195.442 193.637 195.204 194.155 194.718 194.566C194.242 194.967 193.594 195.168 192.772 195.168ZM200.818 195V188.056H201.882L201.966 189.064C202.19 188.691 202.488 188.401 202.862 188.196C203.235 187.991 203.655 187.888 204.122 187.888C204.672 187.888 205.144 188 205.536 188.224C205.937 188.448 206.245 188.789 206.46 189.246C206.702 188.826 207.034 188.495 207.454 188.252C207.883 188.009 208.345 187.888 208.84 187.888C209.67 187.888 210.333 188.14 210.828 188.644C211.322 189.139 211.57 189.904 211.57 190.94V195H210.408V191.066C210.408 190.347 210.263 189.806 209.974 189.442C209.684 189.078 209.269 188.896 208.728 188.896C208.168 188.896 207.701 189.115 207.328 189.554C206.964 189.983 206.782 190.599 206.782 191.402V195H205.606V191.066C205.606 190.347 205.461 189.806 205.172 189.442C204.882 189.078 204.467 188.896 203.926 188.896C203.375 188.896 202.913 189.115 202.54 189.554C202.176 189.983 201.994 190.599 201.994 191.402V195H200.818ZM216.463 195.168C215.8 195.168 215.212 195.019 214.699 194.72C214.186 194.412 213.78 193.987 213.481 193.446C213.192 192.905 213.047 192.265 213.047 191.528C213.047 190.8 213.192 190.165 213.481 189.624C213.77 189.073 214.172 188.649 214.685 188.35C215.208 188.042 215.81 187.888 216.491 187.888C217.163 187.888 217.742 188.042 218.227 188.35C218.722 188.649 219.1 189.045 219.361 189.54C219.622 190.035 219.753 190.567 219.753 191.136C219.753 191.239 219.748 191.341 219.739 191.444C219.739 191.547 219.739 191.663 219.739 191.794H214.209C214.237 192.326 214.358 192.769 214.573 193.124C214.797 193.469 215.072 193.731 215.399 193.908C215.735 194.085 216.09 194.174 216.463 194.174C216.948 194.174 217.354 194.062 217.681 193.838C218.008 193.614 218.246 193.311 218.395 192.928H219.557C219.37 193.572 219.011 194.109 218.479 194.538C217.956 194.958 217.284 195.168 216.463 195.168ZM216.463 188.882C215.903 188.882 215.404 189.055 214.965 189.4C214.536 189.736 214.288 190.231 214.223 190.884H218.591C218.563 190.259 218.348 189.769 217.947 189.414C217.546 189.059 217.051 188.882 216.463 188.882ZM221.312 195V188.056H222.376L222.46 189.064C222.684 188.691 222.982 188.401 223.356 188.196C223.729 187.991 224.149 187.888 224.616 187.888C225.166 187.888 225.638 188 226.03 188.224C226.431 188.448 226.739 188.789 226.954 189.246C227.196 188.826 227.528 188.495 227.948 188.252C228.377 188.009 228.839 187.888 229.334 187.888C230.164 187.888 230.827 188.14 231.322 188.644C231.816 189.139 232.064 189.904 232.064 190.94V195H230.902V191.066C230.902 190.347 230.757 189.806 230.468 189.442C230.178 189.078 229.763 188.896 229.222 188.896C228.662 188.896 228.195 189.115 227.822 189.554C227.458 189.983 227.276 190.599 227.276 191.402V195H226.1V191.066C226.1 190.347 225.955 189.806 225.666 189.442C225.376 189.078 224.961 188.896 224.42 188.896C223.869 188.896 223.407 189.115 223.034 189.554C222.67 189.983 222.488 190.599 222.488 191.402V195H221.312ZM237.545 195.168C236.976 195.168 236.467 195.051 236.019 194.818C235.58 194.585 235.244 194.258 235.011 193.838L234.899 195H233.835V184.92H235.011V189.204C235.235 188.868 235.552 188.565 235.963 188.294C236.383 188.023 236.915 187.888 237.559 187.888C238.25 187.888 238.852 188.047 239.365 188.364C239.878 188.681 240.275 189.115 240.555 189.666C240.844 190.217 240.989 190.842 240.989 191.542C240.989 192.242 240.844 192.867 240.555 193.418C240.275 193.959 239.874 194.389 239.351 194.706C238.838 195.014 238.236 195.168 237.545 195.168ZM237.419 194.146C237.886 194.146 238.296 194.039 238.651 193.824C239.006 193.6 239.286 193.292 239.491 192.9C239.696 192.508 239.799 192.051 239.799 191.528C239.799 191.005 239.696 190.548 239.491 190.156C239.286 189.764 239.006 189.461 238.651 189.246C238.296 189.022 237.886 188.91 237.419 188.91C236.952 188.91 236.542 189.022 236.187 189.246C235.832 189.461 235.552 189.764 235.347 190.156C235.142 190.548 235.039 191.005 235.039 191.528C235.039 192.051 235.142 192.508 235.347 192.9C235.552 193.292 235.832 193.6 236.187 193.824C236.542 194.039 236.952 194.146 237.419 194.146ZM245.748 195.168C245.085 195.168 244.497 195.019 243.984 194.72C243.471 194.412 243.065 193.987 242.766 193.446C242.477 192.905 242.332 192.265 242.332 191.528C242.332 190.8 242.477 190.165 242.766 189.624C243.055 189.073 243.457 188.649 243.97 188.35C244.493 188.042 245.095 187.888 245.776 187.888C246.448 187.888 247.027 188.042 247.512 188.35C248.007 188.649 248.385 189.045 248.646 189.54C248.907 190.035 249.038 190.567 249.038 191.136C249.038 191.239 249.033 191.341 249.024 191.444C249.024 191.547 249.024 191.663 249.024 191.794H243.494C243.522 192.326 243.643 192.769 243.858 193.124C244.082 193.469 244.357 193.731 244.684 193.908C245.02 194.085 245.375 194.174 245.748 194.174C246.233 194.174 246.639 194.062 246.966 193.838C247.293 193.614 247.531 193.311 247.68 192.928H248.842C248.655 193.572 248.296 194.109 247.764 194.538C247.241 194.958 246.569 195.168 245.748 195.168ZM245.748 188.882C245.188 188.882 244.689 189.055 244.25 189.4C243.821 189.736 243.573 190.231 243.508 190.884H247.876C247.848 190.259 247.633 189.769 247.232 189.414C246.831 189.059 246.336 188.882 245.748 188.882ZM250.597 195V188.056H251.661L251.759 189.386C251.974 188.929 252.3 188.565 252.739 188.294C253.178 188.023 253.719 187.888 254.363 187.888V189.12H254.041C253.63 189.12 253.252 189.195 252.907 189.344C252.562 189.484 252.286 189.727 252.081 190.072C251.876 190.417 251.773 190.893 251.773 191.5V195H250.597ZM262.58 195.168C261.917 195.168 261.32 195.019 260.788 194.72C260.265 194.412 259.85 193.987 259.542 193.446C259.243 192.895 259.094 192.256 259.094 191.528C259.094 190.8 259.243 190.165 259.542 189.624C259.85 189.073 260.265 188.649 260.788 188.35C261.32 188.042 261.917 187.888 262.58 187.888C263.401 187.888 264.092 188.103 264.652 188.532C265.221 188.961 265.581 189.535 265.73 190.254H264.526C264.433 189.825 264.204 189.493 263.84 189.26C263.476 189.017 263.051 188.896 262.566 188.896C262.174 188.896 261.805 188.994 261.46 189.19C261.115 189.386 260.835 189.68 260.62 190.072C260.405 190.464 260.298 190.949 260.298 191.528C260.298 192.107 260.405 192.592 260.62 192.984C260.835 193.376 261.115 193.675 261.46 193.88C261.805 194.076 262.174 194.174 262.566 194.174C263.051 194.174 263.476 194.057 263.84 193.824C264.204 193.581 264.433 193.241 264.526 192.802H265.73C265.59 193.502 265.235 194.071 264.666 194.51C264.097 194.949 263.401 195.168 262.58 195.168ZM269.682 195.168C269.104 195.168 268.623 195.07 268.24 194.874C267.858 194.678 267.573 194.417 267.386 194.09C267.2 193.763 267.106 193.409 267.106 193.026C267.106 192.317 267.377 191.771 267.918 191.388C268.46 191.005 269.197 190.814 270.13 190.814H272.006V190.73C272.006 190.123 271.848 189.666 271.53 189.358C271.213 189.041 270.788 188.882 270.256 188.882C269.799 188.882 269.402 188.999 269.066 189.232C268.74 189.456 268.534 189.787 268.45 190.226H267.246C267.293 189.722 267.461 189.297 267.75 188.952C268.049 188.607 268.418 188.345 268.856 188.168C269.295 187.981 269.762 187.888 270.256 187.888C271.227 187.888 271.955 188.149 272.44 188.672C272.935 189.185 273.182 189.871 273.182 190.73V195H272.132L272.062 193.754C271.866 194.146 271.577 194.482 271.194 194.762C270.821 195.033 270.317 195.168 269.682 195.168ZM269.864 194.174C270.312 194.174 270.695 194.057 271.012 193.824C271.339 193.591 271.586 193.287 271.754 192.914C271.922 192.541 272.006 192.149 272.006 191.738V191.724H270.228C269.538 191.724 269.048 191.845 268.758 192.088C268.478 192.321 268.338 192.615 268.338 192.97C268.338 193.334 268.469 193.628 268.73 193.852C269.001 194.067 269.379 194.174 269.864 194.174ZM274.946 195V184.92H276.122V195H274.946ZM281.242 195.168C280.579 195.168 279.982 195.019 279.45 194.72C278.927 194.412 278.512 193.987 278.204 193.446C277.905 192.895 277.756 192.256 277.756 191.528C277.756 190.8 277.905 190.165 278.204 189.624C278.512 189.073 278.927 188.649 279.45 188.35C279.982 188.042 280.579 187.888 281.242 187.888C282.063 187.888 282.754 188.103 283.314 188.532C283.883 188.961 284.243 189.535 284.392 190.254H283.188C283.095 189.825 282.866 189.493 282.502 189.26C282.138 189.017 281.713 188.896 281.228 188.896C280.836 188.896 280.467 188.994 280.122 189.19C279.777 189.386 279.497 189.68 279.282 190.072C279.067 190.464 278.96 190.949 278.96 191.528C278.96 192.107 279.067 192.592 279.282 192.984C279.497 193.376 279.777 193.675 280.122 193.88C280.467 194.076 280.836 194.174 281.228 194.174C281.713 194.174 282.138 194.057 282.502 193.824C282.866 193.581 283.095 193.241 283.188 192.802H284.392C284.252 193.502 283.897 194.071 283.328 194.51C282.759 194.949 282.063 195.168 281.242 195.168ZM288.568 195.168C287.747 195.168 287.094 194.921 286.608 194.426C286.123 193.922 285.88 193.152 285.88 192.116V188.056H287.056V191.99C287.056 193.437 287.649 194.16 288.834 194.16C289.441 194.16 289.94 193.945 290.332 193.516C290.734 193.077 290.934 192.457 290.934 191.654V188.056H292.11V195H291.046L290.962 193.754C290.748 194.193 290.426 194.538 289.996 194.79C289.576 195.042 289.1 195.168 288.568 195.168ZM294.046 195V184.92H295.222V195H294.046ZM299.46 195.168C298.881 195.168 298.4 195.07 298.018 194.874C297.635 194.678 297.35 194.417 297.164 194.09C296.977 193.763 296.884 193.409 296.884 193.026C296.884 192.317 297.154 191.771 297.696 191.388C298.237 191.005 298.974 190.814 299.908 190.814H301.784V190.73C301.784 190.123 301.625 189.666 301.308 189.358C300.99 189.041 300.566 188.882 300.034 188.882C299.576 188.882 299.18 188.999 298.844 189.232C298.517 189.456 298.312 189.787 298.228 190.226H297.024C297.07 189.722 297.238 189.297 297.528 188.952C297.826 188.607 298.195 188.345 298.634 188.168C299.072 187.981 299.539 187.888 300.034 187.888C301.004 187.888 301.732 188.149 302.218 188.672C302.712 189.185 302.96 189.871 302.96 190.73V195H301.91L301.84 193.754C301.644 194.146 301.354 194.482 300.972 194.762C300.598 195.033 300.094 195.168 299.46 195.168ZM299.642 194.174C300.09 194.174 300.472 194.057 300.79 193.824C301.116 193.591 301.364 193.287 301.532 192.914C301.7 192.541 301.784 192.149 301.784 191.738V191.724H300.006C299.315 191.724 298.825 191.845 298.536 192.088C298.256 192.321 298.116 192.615 298.116 192.97C298.116 193.334 298.246 193.628 298.508 193.852C298.778 194.067 299.156 194.174 299.642 194.174ZM307.276 195C306.642 195 306.142 194.846 305.778 194.538C305.414 194.23 305.232 193.675 305.232 192.872V189.05H304.028V188.056H305.232L305.386 186.39H306.408V188.056H308.452V189.05H306.408V192.872C306.408 193.311 306.497 193.609 306.674 193.768C306.852 193.917 307.164 193.992 307.612 193.992H308.34V195H307.276ZM312.877 195.168C312.214 195.168 311.626 195.019 311.113 194.72C310.6 194.412 310.194 193.987 309.895 193.446C309.606 192.905 309.461 192.265 309.461 191.528C309.461 190.8 309.606 190.165 309.895 189.624C310.184 189.073 310.586 188.649 311.099 188.35C311.622 188.042 312.224 187.888 312.905 187.888C313.577 187.888 314.156 188.042 314.641 188.35C315.136 188.649 315.514 189.045 315.775 189.54C316.036 190.035 316.167 190.567 316.167 191.136C316.167 191.239 316.162 191.341 316.153 191.444C316.153 191.547 316.153 191.663 316.153 191.794H310.623C310.651 192.326 310.772 192.769 310.987 193.124C311.211 193.469 311.486 193.731 311.813 193.908C312.149 194.085 312.504 194.174 312.877 194.174C313.362 194.174 313.768 194.062 314.095 193.838C314.422 193.614 314.66 193.311 314.809 192.928H315.971C315.784 193.572 315.425 194.109 314.893 194.538C314.37 194.958 313.698 195.168 312.877 195.168ZM312.877 188.882C312.317 188.882 311.818 189.055 311.379 189.4C310.95 189.736 310.702 190.231 310.637 190.884H315.005C314.977 190.259 314.762 189.769 314.361 189.414C313.96 189.059 313.465 188.882 312.877 188.882ZM321.431 195V188.056H322.495L322.579 189.064C322.803 188.691 323.102 188.401 323.475 188.196C323.848 187.991 324.268 187.888 324.735 187.888C325.286 187.888 325.757 188 326.149 188.224C326.55 188.448 326.858 188.789 327.073 189.246C327.316 188.826 327.647 188.495 328.067 188.252C328.496 188.009 328.958 187.888 329.453 187.888C330.284 187.888 330.946 188.14 331.441 188.644C331.936 189.139 332.183 189.904 332.183 190.94V195H331.021V191.066C331.021 190.347 330.876 189.806 330.587 189.442C330.298 189.078 329.882 188.896 329.341 188.896C328.781 188.896 328.314 189.115 327.941 189.554C327.577 189.983 327.395 190.599 327.395 191.402V195H326.219V191.066C326.219 190.347 326.074 189.806 325.785 189.442C325.496 189.078 325.08 188.896 324.539 188.896C323.988 188.896 323.526 189.115 323.153 189.554C322.789 189.983 322.607 190.599 322.607 191.402V195H321.431ZM334.505 198.08L336.227 194.328H335.821L333.063 188.056H334.337L336.633 193.46L339.069 188.056H340.287L335.737 198.08H334.505ZM159.966 216V209.056H161.03L161.114 210.064C161.338 209.691 161.637 209.401 162.01 209.196C162.383 208.991 162.803 208.888 163.27 208.888C163.821 208.888 164.292 209 164.684 209.224C165.085 209.448 165.393 209.789 165.608 210.246C165.851 209.826 166.182 209.495 166.602 209.252C167.031 209.009 167.493 208.888 167.988 208.888C168.819 208.888 169.481 209.14 169.976 209.644C170.471 210.139 170.718 210.904 170.718 211.94V216H169.556V212.066C169.556 211.347 169.411 210.806 169.122 210.442C168.833 210.078 168.417 209.896 167.876 209.896C167.316 209.896 166.849 210.115 166.476 210.554C166.112 210.983 165.93 211.599 165.93 212.402V216H164.754V212.066C164.754 211.347 164.609 210.806 164.32 210.442C164.031 210.078 163.615 209.896 163.074 209.896C162.523 209.896 162.061 210.115 161.688 210.554C161.324 210.983 161.142 211.599 161.142 212.402V216H159.966ZM175.653 216.168C175 216.168 174.412 216.019 173.889 215.72C173.367 215.421 172.951 215.001 172.643 214.46C172.345 213.909 172.195 213.265 172.195 212.528C172.195 211.791 172.349 211.151 172.657 210.61C172.965 210.059 173.381 209.635 173.903 209.336C174.435 209.037 175.028 208.888 175.681 208.888C176.335 208.888 176.923 209.037 177.445 209.336C177.968 209.635 178.379 210.059 178.677 210.61C178.985 211.151 179.139 211.791 179.139 212.528C179.139 213.265 178.985 213.909 178.677 214.46C178.369 215.001 177.949 215.421 177.417 215.72C176.895 216.019 176.307 216.168 175.653 216.168ZM175.653 215.16C176.055 215.16 176.428 215.062 176.773 214.866C177.119 214.67 177.399 214.376 177.613 213.984C177.828 213.592 177.935 213.107 177.935 212.528C177.935 211.949 177.828 211.464 177.613 211.072C177.408 210.68 177.133 210.386 176.787 210.19C176.442 209.994 176.073 209.896 175.681 209.896C175.28 209.896 174.907 209.994 174.561 210.19C174.216 210.386 173.936 210.68 173.721 211.072C173.507 211.464 173.399 211.949 173.399 212.528C173.399 213.107 173.507 213.592 173.721 213.984C173.936 214.376 174.211 214.67 174.547 214.866C174.893 215.062 175.261 215.16 175.653 215.16ZM180.775 216V209.056H181.839L181.909 210.302C182.133 209.863 182.455 209.518 182.875 209.266C183.295 209.014 183.771 208.888 184.303 208.888C185.124 208.888 185.777 209.14 186.263 209.644C186.757 210.139 187.005 210.904 187.005 211.94V216H185.829V212.066C185.829 210.619 185.231 209.896 184.037 209.896C183.439 209.896 182.94 210.115 182.539 210.554C182.147 210.983 181.951 211.599 181.951 212.402V216H180.775ZM191.53 216C190.896 216 190.396 215.846 190.032 215.538C189.668 215.23 189.486 214.675 189.486 213.872V210.05H188.282V209.056H189.486L189.64 207.39H190.662V209.056H192.706V210.05H190.662V213.872C190.662 214.311 190.751 214.609 190.928 214.768C191.106 214.917 191.418 214.992 191.866 214.992H192.594V216H191.53ZM194.2 216V205.92H195.376V210.246C195.61 209.817 195.941 209.485 196.37 209.252C196.8 209.009 197.266 208.888 197.77 208.888C198.573 208.888 199.217 209.14 199.702 209.644C200.188 210.139 200.43 210.904 200.43 211.94V216H199.268V212.066C199.268 210.619 198.685 209.896 197.518 209.896C196.912 209.896 196.403 210.115 195.992 210.554C195.582 210.983 195.376 211.599 195.376 212.402V216H194.2ZM202.212 216V205.92H203.388V216H202.212ZM206.072 219.08L207.794 215.328H207.388L204.63 209.056H205.904L208.2 214.46L210.636 209.056H211.854L207.304 219.08H206.072ZM219.544 216C218.909 216 218.41 215.846 218.046 215.538C217.682 215.23 217.5 214.675 217.5 213.872V210.05H216.296V209.056H217.5L217.654 207.39H218.676V209.056H220.72V210.05H218.676V213.872C218.676 214.311 218.765 214.609 218.942 214.768C219.119 214.917 219.432 214.992 219.88 214.992H220.608V216H219.544ZM224.524 216.168C223.945 216.168 223.465 216.07 223.082 215.874C222.699 215.678 222.415 215.417 222.228 215.09C222.041 214.763 221.948 214.409 221.948 214.026C221.948 213.317 222.219 212.771 222.76 212.388C223.301 212.005 224.039 211.814 224.972 211.814H226.848V211.73C226.848 211.123 226.689 210.666 226.372 210.358C226.055 210.041 225.63 209.882 225.098 209.882C224.641 209.882 224.244 209.999 223.908 210.232C223.581 210.456 223.376 210.787 223.292 211.226H222.088C222.135 210.722 222.303 210.297 222.592 209.952C222.891 209.607 223.259 209.345 223.698 209.168C224.137 208.981 224.603 208.888 225.098 208.888C226.069 208.888 226.797 209.149 227.282 209.672C227.777 210.185 228.024 210.871 228.024 211.73V216H226.974L226.904 214.754C226.708 215.146 226.419 215.482 226.036 215.762C225.663 216.033 225.159 216.168 224.524 216.168ZM224.706 215.174C225.154 215.174 225.537 215.057 225.854 214.824C226.181 214.591 226.428 214.287 226.596 213.914C226.764 213.541 226.848 213.149 226.848 212.738V212.724H225.07C224.379 212.724 223.889 212.845 223.6 213.088C223.32 213.321 223.18 213.615 223.18 213.97C223.18 214.334 223.311 214.628 223.572 214.852C223.843 215.067 224.221 215.174 224.706 215.174ZM229.088 216L231.496 212.528L229.088 209.056H230.362L232.308 211.926L234.268 209.056H235.528L233.12 212.528L235.528 216H234.268L232.308 213.13L230.362 216H229.088Z" fill="#333333"/>
</g>
<rect x="16" y="262" width="32" height="32" rx="16" fill="#229EFF"/>
<g clip-path="url(#clip2_999_2070)">
<path fill-rule="evenodd" clip-rule="evenodd" d="M36.667 270.5C37.7721 270.5 38.8319 270.939 39.6133 271.72C40.3947 272.502 40.8337 273.562 40.8337 274.667V281.333C40.8337 282.438 40.3947 283.498 39.6133 284.28C38.8319 285.061 37.7721 285.5 36.667 285.5H25.0003C24.7793 285.5 24.5674 285.412 24.4111 285.256C24.2548 285.1 24.167 284.888 24.167 284.667V274.667C24.167 273.562 24.606 272.502 25.3874 271.72C26.1688 270.939 27.2286 270.5 28.3337 270.5H36.667ZM30.0003 276.333C29.7962 276.333 29.5992 276.408 29.4467 276.544C29.2942 276.68 29.1967 276.866 29.1728 277.069L29.167 277.167V278.833C29.1672 279.046 29.2486 279.25 29.3944 279.404C29.5402 279.559 29.7395 279.652 29.9515 279.664C30.1635 279.677 30.3723 279.608 30.5352 279.471C30.6981 279.335 30.8027 279.142 30.8278 278.931L30.8337 278.833V277.167C30.8337 276.946 30.7459 276.734 30.5896 276.577C30.4333 276.421 30.2213 276.333 30.0003 276.333ZM35.0003 276.333C34.7793 276.333 34.5674 276.421 34.4111 276.577C34.2548 276.734 34.167 276.946 34.167 277.167V278.833C34.167 279.054 34.2548 279.266 34.4111 279.423C34.5674 279.579 34.7793 279.667 35.0003 279.667C35.2213 279.667 35.4333 279.579 35.5896 279.423C35.7459 279.266 35.8337 279.054 35.8337 278.833V277.167C35.8337 276.946 35.7459 276.734 35.5896 276.577C35.4333 276.421 35.2213 276.333 35.0003 276.333Z" fill="white"/>
</g>
<g filter="url(#filter1_d_999_2070)">
<path d="M56 268.4C56 266.16 56 265.04 56.436 264.184C56.8195 263.431 57.4314 262.819 58.184 262.436C59.0397 262 60.1598 262 62.4 262H104.441C107.124 262 108.465 262 109.592 262.143C117.739 263.175 124.154 269.59 125.187 277.738C125.329 278.864 125.329 280.206 125.329 282.888C125.329 285.571 125.329 286.912 125.187 288.039C124.154 296.186 117.739 302.602 109.592 303.634C108.465 303.776 107.124 303.776 104.441 303.776H84.8C74.7191 303.776 69.6786 303.776 65.8282 301.815C62.4413 300.089 59.6876 297.335 57.9619 293.948C56 290.098 56 285.057 56 274.976V268.4Z" fill="#F5F5F5" shape-rendering="crispEdges"/>
<circle cx="76.8882" cy="282.888" r="4.88824" fill="#D9D9D9"/>
<circle cx="90.6646" cy="282.888" r="4.88824" fill="#D9D9D9"/>
<circle cx="104.441" cy="282.888" r="4.88824" fill="#D9D9D9"/>
</g>
</g>
<defs>
<filter id="filter0_d_999_2070" x="142" y="143" width="245" height="97" filterUnits="userSpaceOnUse" color-interpolation-filters="sRGB">
<feFlood flood-opacity="0" result="BackgroundImageFix"/>
<feColorMatrix in="SourceAlpha" type="matrix" values="0 0 0 0 0 0 0 0 0 0 0 0 0 0 0 0 0 0 127 0" result="hardAlpha"/>
<feOffset dy="1"/>
<feGaussianBlur stdDeviation="0.5"/>
<feComposite in2="hardAlpha" operator="out"/>
<feColorMatrix type="matrix" values="0 0 0 0 0 0 0 0 0 0 0 0 0 0 0 0 0 0 0.04 0"/>
<feBlend mode="normal" in2="BackgroundImageFix" result="effect1_dropShadow_999_2070"/>
<feBlend mode="normal" in="SourceGraphic" in2="effect1_dropShadow_999_2070" result="shape"/>
</filter>
<filter id="filter1_d_999_2070" x="55" y="262" width="71.3291" height="43.7773" filterUnits="userSpaceOnUse" color-interpolation-filters="sRGB">
<feFlood flood-opacity="0" result="BackgroundImageFix"/>
<feColorMatrix in="SourceAlpha" type="matrix" values="0 0 0 0 0 0 0 0 0 0 0 0 0 0 0 0 0 0 127 0" result="hardAlpha"/>
<feOffset dy="1"/>
<feGaussianBlur stdDeviation="0.5"/>
<feComposite in2="hardAlpha" operator="out"/>
<feColorMatrix type="matrix" values="0 0 0 0 0 0 0 0 0 0 0 0 0 0 0 0 0 0 0.04 0"/>
<feBlend mode="normal" in2="BackgroundImageFix" result="effect1_dropShadow_999_2070"/>
<feBlend mode="normal" in="SourceGraphic" in2="effect1_dropShadow_999_2070" result="shape"/>
</filter>
<clipPath id="clip0_999_2070">
<rect width="402" height="1148" rx="48" fill="white"/>
</clipPath>
<clipPath id="clip1_999_2070">
<rect width="24" height="24" fill="white" transform="translate(362 70)"/>
</clipPath>
<clipPath id="clip2_999_2070">
<rect width="20" height="20" fill="white" transform="translate(22.5 268)"/>
</clipPath>
</defs>
</svg>
