<svg width="18" height="19" viewBox="0 0 18 19" fill="none" xmlns="http://www.w3.org/2000/svg">
<path d="M9.00196 2.08594C7.13799 2.08594 5.62695 3.59698 5.62695 5.46094C5.62695 7.3249 7.13799 8.83594 9.00196 8.83594C10.866 8.83594 12.377 7.3249 12.377 5.46094C12.377 3.59698 10.866 2.08594 9.00196 2.08594Z" fill="white"/>
<path d="M2.77268 14.6082C3.41533 11.7487 5.77637 9.58594 9.00075 9.58594C10.0404 9.58594 10.9903 9.81079 11.8218 10.2114C9.95917 10.5681 9.00075 12.3755 9.00075 13.8984C9.00075 14.8296 9.3543 15.6633 9.8247 16.3359H4.19958C3.34822 16.3359 2.55535 15.5753 2.77268 14.6082Z" fill="white"/>
<path fill-rule="evenodd" clip-rule="evenodd" d="M12.5019 11.6484C11.9883 11.6484 11.4757 11.8548 11.0955 12.2605C10.7116 12.6699 10.502 13.2379 10.502 13.8984C10.502 14.9695 11.2503 15.7877 11.829 16.2657C12.1386 16.5214 12.4529 16.7244 12.7071 16.8656C12.834 16.9361 12.9532 16.9953 13.056 17.0394C13.1067 17.061 13.1618 17.0827 13.2171 17.1004L13.2194 17.1012C13.2526 17.1118 13.3667 17.1484 13.502 17.1484C13.6373 17.1484 13.7513 17.1118 13.7846 17.1012L13.7868 17.1004C13.8421 17.0827 13.8972 17.061 13.9479 17.0394C14.0507 16.9953 14.1699 16.9361 14.2968 16.8656C14.551 16.7244 14.8654 16.5214 15.1749 16.2657C15.7536 15.7877 16.502 14.9695 16.502 13.8984C16.502 13.2379 16.2924 12.6699 15.9085 12.2605C15.5283 11.8548 15.0157 11.6484 14.502 11.6484C14.0902 11.6484 13.7511 11.7579 13.502 11.8793C13.2529 11.7579 12.9137 11.6484 12.5019 11.6484Z" fill="white"/>
</svg>
