<svg width="393" height="548" viewBox="0 0 393 548" fill="none" xmlns="http://www.w3.org/2000/svg">
<g clip-path="url(#clip0_1037_1345)">
<rect width="393" height="852" rx="48" fill="white"/>
<path d="M39.66 38.2198C39.8395 38.2573 40.0006 38.3554 40.1163 38.4976C40.2319 38.6399 40.2951 38.8177 40.2951 39.001C40.2951 39.1844 40.2319 39.3622 40.1163 39.5044C40.0006 39.6467 39.8395 39.7448 39.66 39.7822L39.4992 39.799H29.4996C29.2955 39.7878 29.1035 39.6989 28.9629 39.5505C28.8224 39.402 28.7441 39.2054 28.7441 39.001C28.7441 38.7967 28.8224 38.6 28.9629 38.4516C29.1035 38.3032 29.2955 38.2142 29.4996 38.203H39.4992L39.66 38.2198ZM36.504 30.2026C36.5056 30.753 36.5672 31.285 36.6888 31.7986H29.4996C29.2955 31.7874 29.1035 31.6985 28.9629 31.5501C28.8224 31.4016 28.7441 31.205 28.7441 31.0006C28.7441 30.7963 28.8224 30.5996 28.9629 30.4512C29.1035 30.3028 29.2955 30.2138 29.4996 30.2026H36.504Z" fill="black"/>
<path d="M159.183 40V27.4H160.533V40H159.183ZM155.223 28.714V27.4H164.475V28.714H155.223ZM167.016 40.216C166.404 40.216 165.852 40.096 165.36 39.856C164.88 39.616 164.502 39.286 164.226 38.866C163.95 38.446 163.812 37.96 163.812 37.408C163.812 36.628 164.088 35.998 164.64 35.518C165.204 35.026 165.978 34.744 166.962 34.672L170.418 34.42V35.68L167.268 35.914C166.572 35.962 166.05 36.112 165.702 36.364C165.366 36.616 165.198 36.964 165.198 37.408C165.198 37.84 165.372 38.2 165.72 38.488C166.08 38.764 166.542 38.902 167.106 38.902C167.67 38.902 168.18 38.776 168.636 38.524C169.104 38.26 169.47 37.912 169.734 37.48C170.01 37.036 170.148 36.544 170.148 36.004V34.546C170.148 33.826 169.926 33.238 169.482 32.782C169.05 32.314 168.462 32.08 167.718 32.08C167.154 32.08 166.668 32.218 166.26 32.494C165.852 32.758 165.564 33.148 165.396 33.664H165.198L164.01 33.232C164.298 32.428 164.766 31.816 165.414 31.396C166.062 30.976 166.836 30.766 167.736 30.766C168.948 30.766 169.878 31.132 170.526 31.864C171.174 32.584 171.498 33.61 171.498 34.942V40H170.184V37.39L170.652 37.732C170.508 38.212 170.256 38.644 169.896 39.028C169.536 39.4 169.11 39.694 168.618 39.91C168.126 40.114 167.592 40.216 167.016 40.216ZM179.076 40L172.758 31.144V31H174.288L180.606 39.856V40H179.076ZM172.758 40V39.856L176.322 34.888L177.15 35.932L174.288 40H172.758ZM177.258 35.968L176.43 34.888L179.13 31H180.606V31.144L177.258 35.968ZM184.913 43.6C183.749 43.6 182.843 43.36 182.195 42.88C181.559 42.4 181.241 41.752 181.241 40.936C181.241 40.432 181.361 39.982 181.601 39.586C181.853 39.19 182.219 38.884 182.699 38.668L183.401 39.406C183.137 39.526 182.927 39.706 182.771 39.946C182.627 40.174 182.555 40.426 182.555 40.702C182.555 41.182 182.753 41.572 183.149 41.872C183.557 42.184 184.109 42.34 184.805 42.34H186.047C186.767 42.34 187.337 42.214 187.757 41.962C188.177 41.71 188.387 41.344 188.387 40.864C188.387 40.516 188.249 40.24 187.973 40.036C187.709 39.832 187.313 39.73 186.785 39.73H184.283C183.815 39.73 183.389 39.646 183.005 39.478C182.633 39.31 182.333 39.076 182.105 38.776C181.889 38.476 181.781 38.122 181.781 37.714C181.781 37.33 181.889 36.976 182.105 36.652C182.333 36.316 182.699 36.058 183.203 35.878L183.941 36.58C183.617 36.652 183.389 36.778 183.257 36.958C183.125 37.138 183.059 37.342 183.059 37.57C183.059 37.87 183.173 38.104 183.401 38.272C183.641 38.428 183.959 38.506 184.355 38.506H186.785C187.673 38.506 188.375 38.728 188.891 39.172C189.419 39.604 189.683 40.174 189.683 40.882C189.683 41.722 189.353 42.382 188.693 42.862C188.033 43.354 187.151 43.6 186.047 43.6H184.913ZM185.525 37.192C184.829 37.192 184.211 37.06 183.671 36.796C183.143 36.52 182.729 36.142 182.429 35.662C182.129 35.17 181.979 34.612 181.979 33.988C181.979 33.352 182.129 32.794 182.429 32.314C182.729 31.834 183.143 31.462 183.671 31.198C184.211 30.922 184.829 30.784 185.525 30.784C186.233 30.784 186.851 30.922 187.379 31.198C187.907 31.462 188.321 31.834 188.621 32.314C188.921 32.794 189.071 33.352 189.071 33.988C189.071 34.612 188.921 35.17 188.621 35.662C188.321 36.142 187.907 36.52 187.379 36.796C186.851 37.06 186.233 37.192 185.525 37.192ZM185.525 35.968C186.197 35.968 186.737 35.788 187.145 35.428C187.565 35.056 187.775 34.576 187.775 33.988C187.775 33.4 187.565 32.926 187.145 32.566C186.737 32.194 186.197 32.008 185.525 32.008C184.853 32.008 184.307 32.194 183.887 32.566C183.479 32.926 183.275 33.4 183.275 33.988C183.275 34.576 183.479 35.056 183.887 35.428C184.307 35.788 184.853 35.968 185.525 35.968ZM187.937 32.08L187.037 31.45C187.037 30.994 187.133 30.592 187.325 30.244C187.517 29.884 187.769 29.602 188.081 29.398C188.405 29.194 188.765 29.092 189.161 29.092C189.245 29.092 189.341 29.098 189.449 29.11C189.557 29.11 189.641 29.122 189.701 29.146V30.406L189.611 30.604C189.491 30.568 189.353 30.55 189.197 30.55C188.777 30.55 188.459 30.694 188.243 30.982C188.039 31.258 187.937 31.624 187.937 32.08ZM195.813 40.216C195.201 40.216 194.637 40.096 194.121 39.856C193.605 39.604 193.161 39.256 192.789 38.812C192.417 38.368 192.141 37.852 191.961 37.264V33.736C192.141 33.136 192.417 32.62 192.789 32.188C193.161 31.744 193.605 31.402 194.121 31.162C194.637 30.91 195.201 30.784 195.813 30.784C196.617 30.784 197.337 30.988 197.973 31.396C198.609 31.804 199.113 32.362 199.485 33.07C199.869 33.778 200.061 34.588 200.061 35.5C200.061 36.412 199.869 37.222 199.485 37.93C199.113 38.638 198.609 39.196 197.973 39.604C197.337 40.012 196.617 40.216 195.813 40.216ZM191.313 43.6V31H192.627V34.366L192.411 35.5L192.663 36.634V43.6H191.313ZM195.759 38.902C196.335 38.902 196.845 38.758 197.289 38.47C197.733 38.182 198.081 37.786 198.333 37.282C198.585 36.766 198.711 36.172 198.711 35.5C198.711 34.828 198.585 34.24 198.333 33.736C198.081 33.22 197.733 32.818 197.289 32.53C196.845 32.242 196.335 32.098 195.759 32.098C195.171 32.098 194.643 32.242 194.175 32.53C193.707 32.818 193.335 33.22 193.059 33.736C192.795 34.24 192.663 34.828 192.663 35.5C192.663 36.172 192.795 36.766 193.059 37.282C193.335 37.786 193.707 38.182 194.175 38.47C194.643 38.758 195.171 38.902 195.759 38.902ZM204.978 40C204.234 40 203.622 39.76 203.142 39.28C202.662 38.8 202.422 38.152 202.422 37.336V28.552H203.772V37.246C203.772 37.774 203.88 38.146 204.096 38.362C204.324 38.578 204.696 38.686 205.212 38.686H206.328L206.418 38.884V40H204.978ZM200.874 32.314V31H206.418V32.314H200.874Z" fill="black"/>
<path d="M223.634 32.9442C223.762 32.8604 223.915 32.8233 224.067 32.839C224.219 32.8547 224.362 32.9223 224.47 33.0305C224.578 33.1387 224.646 33.2809 224.661 33.4331C224.677 33.5853 224.64 33.7382 224.556 33.8662L224.471 33.9712L219.971 38.4712C219.909 38.5331 219.836 38.5822 219.755 38.6157C219.674 38.6491 219.587 38.6664 219.5 38.6664C219.413 38.6664 219.326 38.6491 219.245 38.6157C219.164 38.5822 219.091 38.5331 219.029 38.4712L214.529 33.9712L214.444 33.8662C214.36 33.7382 214.323 33.5853 214.339 33.4331C214.354 33.2809 214.422 33.1387 214.53 33.0305C214.638 32.9223 214.781 32.8547 214.933 32.839C215.085 32.8233 215.238 32.8604 215.366 32.9442L215.471 33.0292L219.5 37.0602L223.53 33.0302L223.634 32.9442Z" fill="black"/>
<g clip-path="url(#clip1_1037_1345)">
<path d="M338.5 25C344.023 25 348.5 29.477 348.5 35C348.5 40.523 344.023 45 338.5 45H330.5C329.97 45 329.461 44.7893 329.086 44.4142C328.711 44.0391 328.5 43.5304 328.5 43V35C328.5 29.477 332.977 25 338.5 25ZM338.5 27C336.378 27 334.343 27.8429 332.843 29.3431C331.343 30.8434 330.5 32.8783 330.5 35V43H338.5C340.622 43 342.657 42.1571 344.157 40.6569C345.657 39.1566 346.5 37.1217 346.5 35C346.5 32.8783 345.657 30.8434 344.157 29.3431C342.657 27.8429 340.622 27 338.5 27Z" fill="#333333"/>
<path d="M339.222 31.9267C339.034 31.7392 338.78 31.6338 338.515 31.6338C338.249 31.6338 337.995 31.7392 337.808 31.9267C337.62 32.1143 337.515 32.3686 337.515 32.6338V34.6338H335.515C335.249 34.6338 334.995 34.7392 334.808 34.9267C334.62 35.1143 334.515 35.3686 334.515 35.6338C334.515 35.8991 334.62 36.1534 334.808 36.341C334.995 36.5285 335.249 36.6338 335.515 36.6338H337.515V38.6338C337.515 38.8991 337.62 39.1534 337.808 39.341C337.995 39.5285 338.249 39.6338 338.515 39.6338C338.78 39.6338 339.034 39.5285 339.222 39.341C339.409 39.1534 339.515 38.8991 339.515 38.6338V36.6338H341.515C341.78 36.6338 342.034 36.5285 342.222 36.341C342.409 36.1534 342.515 35.8991 342.515 35.6338C342.515 35.3686 342.409 35.1143 342.222 34.9267C342.034 34.7392 341.78 34.6338 341.515 34.6338H339.515V32.6338C339.515 32.3686 339.409 32.1143 339.222 31.9267Z" fill="#333333"/>
</g>
<path d="M193 162.2C193 155.479 193 152.119 194.308 149.552C195.458 147.294 197.294 145.458 199.552 144.308C202.119 143 205.479 143 212.2 143H361.8C368.521 143 371.881 143 374.448 144.308C376.706 145.458 378.542 147.294 379.692 149.552C381 152.119 381 155.479 381 162.2V184.6C381 186.84 381 187.96 380.564 188.816C380.181 189.569 379.569 190.181 378.816 190.564C377.96 191 376.84 191 374.6 191H212.2C205.479 191 202.119 191 199.552 189.692C197.294 188.542 195.458 186.706 194.308 184.448C193 181.881 193 178.521 193 171.8V162.2Z" fill="#F5F5F5"/>
<rect x="197" y="147" width="40" height="40" rx="8" fill="#F14CFF"/>
<g clip-path="url(#clip2_1037_1345)">
<path fill-rule="evenodd" clip-rule="evenodd" d="M218.321 158.667C218.713 158.667 219.091 158.805 219.391 159.056L219.5 159.155L223.178 162.834C223.455 163.11 223.625 163.476 223.66 163.865L223.666 164.012V173.667C223.666 174.087 223.508 174.492 223.222 174.801C222.936 175.109 222.544 175.298 222.125 175.329L222 175.334H212C211.579 175.334 211.174 175.175 210.866 174.889C210.558 174.603 210.369 174.211 210.337 173.792L210.333 173.667V160.334C210.333 159.913 210.492 159.508 210.778 159.2C211.063 158.892 211.455 158.703 211.875 158.671L212 158.667H218.321ZM217 160.334H212V173.667H222V165.334H218.25C217.939 165.334 217.639 165.218 217.409 165.009C217.179 164.8 217.035 164.513 217.006 164.204L217 164.084V160.334ZM217.823 166.874C218.023 168.143 218.686 169.293 219.686 170.1C220.425 170.698 219.749 171.868 218.862 171.527C217.663 171.066 216.336 171.066 215.137 171.527C214.25 171.869 213.574 170.698 214.313 170.1C215.312 169.293 215.976 168.143 216.176 166.874C216.324 165.934 217.676 165.935 217.823 166.874ZM216.998 168.794L216.425 169.79H217.575L216.998 168.794ZM218.666 160.679V163.667H221.655L218.666 160.679Z" fill="#FEEDFF"/>
</g>
<path d="M252.392 161L248.85 151.494L248.766 151.2H250.166L253.89 160.888V161H252.392ZM245.042 161V160.888L248.766 151.2H250.166L250.054 151.494L246.512 161H245.042ZM246.582 158.578L247.002 157.234H252.056L252.476 158.578H246.582ZM258.058 161.196C257.348 161.196 256.723 161.042 256.182 160.734C255.64 160.417 255.216 159.978 254.908 159.418C254.609 158.858 254.46 158.209 254.46 157.472C254.46 156.735 254.609 156.091 254.908 155.54C255.216 154.98 255.64 154.546 256.182 154.238C256.723 153.921 257.348 153.762 258.058 153.762C258.608 153.762 259.098 153.855 259.528 154.042C259.966 154.229 260.34 154.504 260.648 154.868C260.956 155.223 261.184 155.661 261.334 156.184L260.144 156.52H259.99C259.84 156.063 259.588 155.703 259.234 155.442C258.888 155.181 258.496 155.05 258.058 155.05C257.61 155.05 257.222 155.153 256.896 155.358C256.569 155.563 256.312 155.848 256.126 156.212C255.948 156.567 255.86 156.987 255.86 157.472C255.86 157.957 255.948 158.382 256.126 158.746C256.312 159.11 256.569 159.395 256.896 159.6C257.222 159.796 257.61 159.894 258.058 159.894C258.375 159.894 258.664 159.838 258.926 159.726C259.187 159.614 259.411 159.451 259.598 159.236C259.794 159.012 259.943 158.746 260.046 158.438H260.2L261.404 158.774C261.236 159.297 260.993 159.74 260.676 160.104C260.358 160.468 259.98 160.743 259.542 160.93C259.112 161.107 258.618 161.196 258.058 161.196ZM266.001 161.196C265.292 161.196 264.666 161.042 264.125 160.734C263.584 160.417 263.159 159.978 262.851 159.418C262.552 158.858 262.403 158.209 262.403 157.472C262.403 156.735 262.552 156.091 262.851 155.54C263.159 154.98 263.584 154.546 264.125 154.238C264.666 153.921 265.292 153.762 266.001 153.762C266.552 153.762 267.042 153.855 267.471 154.042C267.91 154.229 268.283 154.504 268.591 154.868C268.899 155.223 269.128 155.661 269.277 156.184L268.087 156.52H267.933C267.784 156.063 267.532 155.703 267.177 155.442C266.832 155.181 266.44 155.05 266.001 155.05C265.553 155.05 265.166 155.153 264.839 155.358C264.512 155.563 264.256 155.848 264.069 156.212C263.892 156.567 263.803 156.987 263.803 157.472C263.803 157.957 263.892 158.382 264.069 158.746C264.256 159.11 264.512 159.395 264.839 159.6C265.166 159.796 265.553 159.894 266.001 159.894C266.318 159.894 266.608 159.838 266.869 159.726C267.13 159.614 267.354 159.451 267.541 159.236C267.737 159.012 267.886 158.746 267.989 158.438H268.143L269.347 158.774C269.179 159.297 268.936 159.74 268.619 160.104C268.302 160.468 267.924 160.743 267.485 160.93C267.056 161.107 266.561 161.196 266.001 161.196ZM273.902 161.196C273.202 161.196 272.586 161.037 272.054 160.72C271.522 160.403 271.102 159.969 270.794 159.418C270.496 158.858 270.346 158.209 270.346 157.472C270.346 156.744 270.496 156.1 270.794 155.54C271.102 154.98 271.522 154.546 272.054 154.238C272.586 153.921 273.202 153.762 273.902 153.762C274.602 153.762 275.218 153.921 275.75 154.238C276.282 154.546 276.698 154.98 276.996 155.54C277.304 156.1 277.458 156.744 277.458 157.472C277.458 158.209 277.304 158.858 276.996 159.418C276.698 159.978 276.282 160.417 275.75 160.734C275.218 161.042 274.602 161.196 273.902 161.196ZM273.902 159.894C274.332 159.894 274.705 159.796 275.022 159.6C275.349 159.404 275.601 159.124 275.778 158.76C275.965 158.396 276.058 157.971 276.058 157.486C276.058 156.982 275.965 156.553 275.778 156.198C275.601 155.834 275.349 155.554 275.022 155.358C274.705 155.153 274.332 155.05 273.902 155.05C273.473 155.05 273.095 155.153 272.768 155.358C272.451 155.554 272.199 155.834 272.012 156.198C271.835 156.553 271.746 156.977 271.746 157.472C271.746 157.967 271.835 158.396 272.012 158.76C272.199 159.124 272.451 159.404 272.768 159.6C273.095 159.796 273.473 159.894 273.902 159.894ZM285.284 153.958V161H283.954V159.11L284.332 159.222C284.192 159.623 283.982 159.973 283.702 160.272C283.422 160.561 283.091 160.79 282.708 160.958C282.335 161.117 281.929 161.196 281.49 161.196C280.996 161.196 280.548 161.089 280.146 160.874C279.745 160.65 279.428 160.328 279.194 159.908C278.961 159.479 278.844 158.951 278.844 158.326V153.958H280.244V157.934C280.244 158.401 280.31 158.779 280.44 159.068C280.58 159.357 280.772 159.567 281.014 159.698C281.257 159.819 281.537 159.88 281.854 159.88C282.172 159.88 282.484 159.801 282.792 159.642C283.11 159.483 283.371 159.236 283.576 158.9C283.782 158.564 283.884 158.13 283.884 157.598V153.958H285.284ZM287.117 161V153.958H288.447V155.848L288.069 155.722C288.209 155.321 288.419 154.975 288.699 154.686C288.979 154.387 289.306 154.159 289.679 154C290.062 153.841 290.468 153.762 290.897 153.762C291.401 153.762 291.854 153.869 292.255 154.084C292.657 154.299 292.974 154.621 293.207 155.05C293.441 155.47 293.557 155.997 293.557 156.632V161H292.157V157.024C292.157 156.548 292.087 156.17 291.947 155.89C291.807 155.601 291.616 155.391 291.373 155.26C291.14 155.129 290.865 155.064 290.547 155.064C290.23 155.064 289.913 155.143 289.595 155.302C289.287 155.461 289.031 155.708 288.825 156.044C288.62 156.38 288.517 156.819 288.517 157.36V161H287.117ZM297.586 161C296.942 161 296.42 160.795 296.018 160.384C295.626 159.973 295.43 159.418 295.43 158.718V152.096H296.83V158.592C296.83 158.975 296.919 159.259 297.096 159.446C297.283 159.623 297.568 159.712 297.95 159.712H298.734L298.804 159.866V161H297.586ZM294.226 155.246V153.958H298.804V155.246H294.226ZM306.014 161.196C305.258 161.196 304.619 161.019 304.096 160.664C303.573 160.3 303.228 159.801 303.06 159.166L304.334 158.844L304.502 158.886C304.595 159.213 304.787 159.469 305.076 159.656C305.375 159.833 305.72 159.922 306.112 159.922C306.495 159.922 306.821 159.838 307.092 159.67C307.363 159.502 307.498 159.278 307.498 158.998C307.498 158.765 307.419 158.583 307.26 158.452C307.101 158.312 306.863 158.205 306.546 158.13L305.23 157.836C304.567 157.687 304.073 157.444 303.746 157.108C303.419 156.763 303.256 156.347 303.256 155.862C303.256 155.442 303.373 155.078 303.606 154.77C303.839 154.453 304.157 154.205 304.558 154.028C304.969 153.851 305.431 153.762 305.944 153.762C306.672 153.762 307.288 153.944 307.792 154.308C308.296 154.663 308.627 155.167 308.786 155.82L307.554 156.086L307.4 156.058C307.316 155.741 307.129 155.493 306.84 155.316C306.56 155.129 306.243 155.036 305.888 155.036C305.543 155.036 305.249 155.111 305.006 155.26C304.773 155.4 304.656 155.587 304.656 155.82C304.656 156.007 304.731 156.17 304.88 156.31C305.029 156.441 305.258 156.539 305.566 156.604L306.896 156.912C307.568 157.061 308.067 157.299 308.394 157.626C308.73 157.953 308.898 158.382 308.898 158.914C308.898 159.381 308.772 159.787 308.52 160.132C308.277 160.468 307.937 160.729 307.498 160.916C307.069 161.103 306.574 161.196 306.014 161.196ZM312.762 161C312.118 161 311.595 160.795 311.194 160.384C310.802 159.973 310.606 159.418 310.606 158.718V152.096H312.006V158.592C312.006 158.975 312.095 159.259 312.272 159.446C312.459 159.623 312.743 159.712 313.126 159.712H313.91L313.98 159.866V161H312.762ZM309.402 155.246V153.958H313.98V155.246H309.402ZM317.411 161.196C316.935 161.196 316.505 161.103 316.123 160.916C315.749 160.729 315.455 160.473 315.241 160.146C315.026 159.81 314.919 159.427 314.919 158.998C314.919 158.354 315.143 157.841 315.591 157.458C316.039 157.066 316.673 156.837 317.495 156.772L320.211 156.548V157.752L317.733 157.948C317.257 157.985 316.907 158.088 316.683 158.256C316.459 158.424 316.347 158.653 316.347 158.942C316.347 159.222 316.468 159.455 316.711 159.642C316.953 159.819 317.261 159.908 317.635 159.908C318.027 159.908 318.381 159.815 318.699 159.628C319.025 159.441 319.282 159.194 319.469 158.886C319.655 158.569 319.749 158.228 319.749 157.864V156.716C319.749 156.221 319.59 155.815 319.273 155.498C318.965 155.181 318.554 155.022 318.041 155.022C317.611 155.022 317.252 155.125 316.963 155.33C316.683 155.535 316.496 155.806 316.403 156.142H316.249L315.045 155.806C315.231 155.181 315.586 154.681 316.109 154.308C316.631 153.935 317.275 153.748 318.041 153.748C319.021 153.748 319.781 154.037 320.323 154.616C320.864 155.185 321.135 155.988 321.135 157.024V161H319.847V158.956L320.351 159.11C320.239 159.493 320.038 159.843 319.749 160.16C319.469 160.477 319.128 160.729 318.727 160.916C318.325 161.103 317.887 161.196 317.411 161.196ZM325.176 161C324.532 161 324.009 160.795 323.608 160.384C323.216 159.973 323.02 159.418 323.02 158.718V152.096H324.42V158.592C324.42 158.975 324.509 159.259 324.686 159.446C324.873 159.623 325.157 159.712 325.54 159.712H326.324L326.394 159.866V161H325.176ZM321.816 155.246V153.958H326.394V155.246H321.816ZM330.805 161.196C330.105 161.196 329.484 161.042 328.943 160.734C328.411 160.417 327.995 159.978 327.697 159.418C327.398 158.858 327.249 158.209 327.249 157.472C327.249 156.735 327.393 156.091 327.683 155.54C327.981 154.98 328.392 154.546 328.915 154.238C329.447 153.921 330.058 153.762 330.749 153.762C331.43 153.762 332.023 153.921 332.527 154.238C333.04 154.555 333.437 155.003 333.717 155.582C334.006 156.151 334.151 156.819 334.151 157.584V157.794L333.941 158.004H327.963V156.772H333.479L332.765 157.052C332.746 156.632 332.643 156.273 332.457 155.974C332.279 155.675 332.041 155.447 331.743 155.288C331.453 155.12 331.127 155.036 330.763 155.036C330.371 155.036 330.011 155.129 329.685 155.316C329.358 155.503 329.101 155.764 328.915 156.1C328.737 156.427 328.649 156.809 328.649 157.248V157.668C328.649 158.097 328.742 158.485 328.929 158.83C329.115 159.166 329.372 159.432 329.699 159.628C330.025 159.824 330.394 159.922 330.805 159.922C331.197 159.922 331.542 159.824 331.841 159.628C332.149 159.423 332.391 159.152 332.569 158.816H332.737L333.871 159.306C333.6 159.894 333.199 160.356 332.667 160.692C332.135 161.028 331.514 161.196 330.805 161.196ZM335.611 161V153.958H336.942V155.792L336.662 155.526C336.802 155.162 337.002 154.849 337.264 154.588C337.525 154.327 337.828 154.126 338.174 153.986C338.528 153.837 338.911 153.762 339.322 153.762C339.919 153.762 340.442 153.93 340.89 154.266C341.347 154.602 341.65 155.092 341.8 155.736L341.296 155.722C341.436 155.321 341.646 154.975 341.926 154.686C342.215 154.387 342.556 154.159 342.948 154C343.349 153.841 343.774 153.762 344.222 153.762C344.698 153.762 345.132 153.869 345.524 154.084C345.916 154.299 346.224 154.621 346.448 155.05C346.681 155.47 346.798 155.997 346.798 156.632V161H345.398V156.968C345.398 156.501 345.328 156.133 345.188 155.862C345.057 155.582 344.875 155.381 344.642 155.26C344.418 155.129 344.156 155.064 343.858 155.064C343.578 155.064 343.284 155.143 342.976 155.302C342.677 155.451 342.425 155.694 342.22 156.03C342.014 156.366 341.912 156.809 341.912 157.36V161H340.512V156.968C340.512 156.501 340.442 156.133 340.302 155.862C340.162 155.582 339.975 155.381 339.742 155.26C339.518 155.129 339.261 155.064 338.972 155.064C338.682 155.064 338.384 155.143 338.076 155.302C337.777 155.461 337.525 155.708 337.32 156.044C337.114 156.371 337.012 156.809 337.012 157.36V161H335.611ZM351.736 161.196C351.036 161.196 350.416 161.042 349.874 160.734C349.342 160.417 348.927 159.978 348.628 159.418C348.33 158.858 348.18 158.209 348.18 157.472C348.18 156.735 348.325 156.091 348.614 155.54C348.913 154.98 349.324 154.546 349.846 154.238C350.378 153.921 350.99 153.762 351.68 153.762C352.362 153.762 352.954 153.921 353.458 154.238C353.972 154.555 354.368 155.003 354.648 155.582C354.938 156.151 355.082 156.819 355.082 157.584V157.794L354.872 158.004H348.894V156.772H354.41L353.696 157.052C353.678 156.632 353.575 156.273 353.388 155.974C353.211 155.675 352.973 155.447 352.674 155.288C352.385 155.12 352.058 155.036 351.694 155.036C351.302 155.036 350.943 155.129 350.616 155.316C350.29 155.503 350.033 155.764 349.846 156.1C349.669 156.427 349.58 156.809 349.58 157.248V157.668C349.58 158.097 349.674 158.485 349.86 158.83C350.047 159.166 350.304 159.432 350.63 159.628C350.957 159.824 351.326 159.922 351.736 159.922C352.128 159.922 352.474 159.824 352.772 159.628C353.08 159.423 353.323 159.152 353.5 158.816H353.668L354.802 159.306C354.532 159.894 354.13 160.356 353.598 160.692C353.066 161.028 352.446 161.196 351.736 161.196ZM356.543 161V153.958H357.873V155.848L357.495 155.722C357.635 155.321 357.845 154.975 358.125 154.686C358.405 154.387 358.732 154.159 359.105 154C359.488 153.841 359.894 153.762 360.323 153.762C360.827 153.762 361.28 153.869 361.681 154.084C362.082 154.299 362.4 154.621 362.633 155.05C362.866 155.47 362.983 155.997 362.983 156.632V161H361.583V157.024C361.583 156.548 361.513 156.17 361.373 155.89C361.233 155.601 361.042 155.391 360.799 155.26C360.566 155.129 360.29 155.064 359.973 155.064C359.656 155.064 359.338 155.143 359.021 155.302C358.713 155.461 358.456 155.708 358.251 156.044C358.046 156.38 357.943 156.819 357.943 157.36V161H356.543ZM367.012 161C366.368 161 365.845 160.795 365.444 160.384C365.052 159.973 364.856 159.418 364.856 158.718V152.096H366.256V158.592C366.256 158.975 366.345 159.259 366.522 159.446C366.709 159.623 366.993 159.712 367.376 159.712H368.16L368.23 159.866V161H367.012ZM363.652 155.246V153.958H368.23V155.246H363.652Z" fill="#282828"/>
<path d="M250.954 175.617C250.954 175.097 250.802 174.694 250.499 174.408C250.204 174.113 249.788 173.966 249.251 173.966H246.625V172.9H249.29C250.148 172.9 250.833 173.147 251.344 173.641C251.855 174.126 252.111 174.785 252.111 175.617H250.954ZM246.014 182V172.9H247.119V182H246.014ZM246.625 178.321V177.268H249.251C249.788 177.268 250.204 177.121 250.499 176.826C250.802 176.531 250.954 176.128 250.954 175.617H252.111C252.111 176.44 251.855 177.099 251.344 177.593C250.833 178.078 250.148 178.321 249.29 178.321H246.625ZM254.33 182V180.934H256.865C257.498 180.934 258.035 180.791 258.477 180.505C258.928 180.21 259.275 179.803 259.517 179.283C259.76 178.763 259.881 178.152 259.881 177.45C259.881 176.739 259.76 176.124 259.517 175.604C259.275 175.084 258.928 174.681 258.477 174.395C258.035 174.109 257.498 173.966 256.865 173.966H254.33V172.9H256.865C257.723 172.9 258.46 173.091 259.075 173.472C259.699 173.853 260.176 174.386 260.505 175.071C260.835 175.756 260.999 176.549 260.999 177.45C260.999 178.351 260.835 179.144 260.505 179.829C260.176 180.514 259.699 181.047 259.075 181.428C258.46 181.809 257.723 182 256.865 182H254.33ZM253.745 182V172.9H254.85V182H253.745ZM262.645 182V172.9H263.75V182H262.645ZM263.217 177.996V176.917H267.91V177.996H263.217ZM263.217 173.966V172.9H268.3V173.966H263.217Z" fill="#818181"/>
<g filter="url(#filter0_d_1037_1345)">
<path d="M138 217C138 207.059 146.059 199 156 199H377C379.209 199 381 200.791 381 203V276C381 285.941 372.941 294 363 294H156C146.059 294 138 285.941 138 276V217Z" fill="#F5F5F5" shape-rendering="crispEdges"/>
<path d="M161.406 230V220.2H162.456V230H161.406ZM155.12 230V220.2H156.17V230H155.12ZM155.666 225.478V224.456H162.036V225.478H155.666ZM167.532 230.168C166.87 230.168 166.282 230.014 165.768 229.706C165.255 229.398 164.854 228.969 164.564 228.418C164.275 227.867 164.13 227.228 164.13 226.5C164.13 225.772 164.27 225.133 164.55 224.582C164.84 224.031 165.236 223.602 165.74 223.294C166.254 222.986 166.842 222.832 167.504 222.832C168.158 222.832 168.727 222.991 169.212 223.308C169.707 223.616 170.094 224.055 170.374 224.624C170.654 225.184 170.794 225.837 170.794 226.584V226.71L170.584 226.906H164.746V225.884H170.178L169.716 226.08C169.679 225.613 169.558 225.217 169.352 224.89C169.147 224.554 168.886 224.297 168.568 224.12C168.251 223.943 167.896 223.854 167.504 223.854C167.075 223.854 166.683 223.961 166.328 224.176C165.974 224.381 165.694 224.675 165.488 225.058C165.283 225.441 165.18 225.884 165.18 226.388V226.57C165.18 227.074 165.278 227.522 165.474 227.914C165.68 228.297 165.96 228.6 166.314 228.824C166.669 229.039 167.075 229.146 167.532 229.146C167.99 229.146 168.382 229.039 168.708 228.824C169.035 228.609 169.292 228.315 169.478 227.942H169.632L170.514 228.334C170.253 228.894 169.861 229.342 169.338 229.678C168.825 230.005 168.223 230.168 167.532 230.168ZM172.4 230V219.92L173.408 219.794L173.45 219.906V230H172.4ZM178.974 230.168C178.498 230.168 178.059 230.075 177.658 229.888C177.257 229.692 176.911 229.421 176.622 229.076C176.333 228.731 176.118 228.329 175.978 227.872V225.128C176.118 224.661 176.333 224.26 176.622 223.924C176.911 223.579 177.257 223.313 177.658 223.126C178.059 222.93 178.498 222.832 178.974 222.832C179.599 222.832 180.159 222.991 180.654 223.308C181.149 223.625 181.541 224.059 181.83 224.61C182.129 225.161 182.278 225.791 182.278 226.5C182.278 227.209 182.129 227.839 181.83 228.39C181.541 228.941 181.149 229.375 180.654 229.692C180.159 230.009 179.599 230.168 178.974 230.168ZM175.474 232.8V223H176.496V225.618L176.328 226.5L176.524 227.382V232.8H175.474ZM178.932 229.146C179.38 229.146 179.777 229.034 180.122 228.81C180.467 228.586 180.738 228.278 180.934 227.886C181.13 227.485 181.228 227.023 181.228 226.5C181.228 225.977 181.13 225.52 180.934 225.128C180.738 224.727 180.467 224.414 180.122 224.19C179.777 223.966 179.38 223.854 178.932 223.854C178.475 223.854 178.064 223.966 177.7 224.19C177.336 224.414 177.047 224.727 176.832 225.128C176.627 225.52 176.524 225.977 176.524 226.5C176.524 227.023 176.627 227.485 176.832 227.886C177.047 228.278 177.336 228.586 177.7 228.81C178.064 229.034 178.475 229.146 178.932 229.146ZM186.89 230V223H187.912V225.03L187.604 224.764C187.725 224.372 187.926 224.031 188.206 223.742C188.486 223.453 188.813 223.229 189.186 223.07C189.559 222.911 189.942 222.832 190.334 222.832C190.95 222.832 191.477 223.009 191.916 223.364C192.364 223.709 192.653 224.213 192.784 224.876H192.308C192.42 224.465 192.616 224.111 192.896 223.812C193.176 223.504 193.517 223.266 193.918 223.098C194.329 222.921 194.772 222.832 195.248 222.832C195.733 222.832 196.163 222.939 196.536 223.154C196.919 223.369 197.217 223.686 197.432 224.106C197.656 224.526 197.768 225.049 197.768 225.674V230H196.718V225.912C196.718 225.38 196.639 224.969 196.48 224.68C196.321 224.381 196.111 224.171 195.85 224.05C195.598 223.929 195.318 223.868 195.01 223.868C194.674 223.868 194.338 223.957 194.002 224.134C193.675 224.311 193.4 224.577 193.176 224.932C192.961 225.277 192.854 225.707 192.854 226.22V230H191.804V225.912C191.804 225.38 191.725 224.969 191.566 224.68C191.407 224.381 191.197 224.171 190.936 224.05C190.684 223.929 190.404 223.868 190.096 223.868C189.76 223.868 189.424 223.961 189.088 224.148C188.761 224.325 188.486 224.591 188.262 224.946C188.047 225.291 187.94 225.716 187.94 226.22V230H186.89ZM202.642 230.168C201.979 230.168 201.391 230.014 200.878 229.706C200.364 229.398 199.963 228.969 199.674 228.418C199.384 227.867 199.24 227.228 199.24 226.5C199.24 225.772 199.38 225.133 199.66 224.582C199.949 224.031 200.346 223.602 200.85 223.294C201.363 222.986 201.951 222.832 202.614 222.832C203.267 222.832 203.836 222.991 204.322 223.308C204.816 223.616 205.204 224.055 205.484 224.624C205.764 225.184 205.904 225.837 205.904 226.584V226.71L205.694 226.906H199.856V225.884H205.288L204.826 226.08C204.788 225.613 204.667 225.217 204.462 224.89C204.256 224.554 203.995 224.297 203.678 224.12C203.36 223.943 203.006 223.854 202.614 223.854C202.184 223.854 201.792 223.961 201.438 224.176C201.083 224.381 200.803 224.675 200.598 225.058C200.392 225.441 200.29 225.884 200.29 226.388V226.57C200.29 227.074 200.388 227.522 200.584 227.914C200.789 228.297 201.069 228.6 201.424 228.824C201.778 229.039 202.184 229.146 202.642 229.146C203.099 229.146 203.491 229.039 203.818 228.824C204.144 228.609 204.401 228.315 204.588 227.942H204.742L205.624 228.334C205.362 228.894 204.97 229.342 204.448 229.678C203.934 230.005 203.332 230.168 202.642 230.168ZM213.077 230C212.498 230 212.022 229.813 211.649 229.44C211.276 229.067 211.089 228.563 211.089 227.928V221.096H212.139V227.858C212.139 228.269 212.223 228.558 212.391 228.726C212.568 228.894 212.858 228.978 213.259 228.978H214.127L214.197 229.132V230H213.077ZM209.885 224.022V223H214.197V224.022H209.885ZM218.557 230.168C217.885 230.168 217.287 230.014 216.765 229.706C216.251 229.398 215.845 228.969 215.547 228.418C215.257 227.867 215.113 227.228 215.113 226.5C215.113 225.772 215.257 225.133 215.547 224.582C215.845 224.031 216.251 223.602 216.765 223.294C217.287 222.986 217.885 222.832 218.557 222.832C219.238 222.832 219.835 222.986 220.349 223.294C220.862 223.602 221.263 224.031 221.553 224.582C221.851 225.133 222.001 225.772 222.001 226.5C222.001 227.228 221.851 227.867 221.553 228.418C221.263 228.969 220.862 229.398 220.349 229.706C219.835 230.014 219.238 230.168 218.557 230.168ZM218.557 229.146C219.023 229.146 219.434 229.039 219.789 228.824C220.153 228.6 220.437 228.292 220.643 227.9C220.848 227.499 220.951 227.032 220.951 226.5C220.951 225.959 220.848 225.492 220.643 225.1C220.437 224.708 220.153 224.405 219.789 224.19C219.434 223.966 219.023 223.854 218.557 223.854C218.09 223.854 217.675 223.966 217.311 224.19C216.956 224.405 216.676 224.708 216.471 225.1C216.265 225.492 216.163 225.959 216.163 226.5C216.163 227.032 216.265 227.499 216.471 227.9C216.676 228.292 216.956 228.6 217.311 228.824C217.675 229.039 218.09 229.146 218.557 229.146ZM229.687 230.168C229.005 230.168 228.399 230.014 227.867 229.706C227.344 229.398 226.933 228.969 226.635 228.418C226.345 227.867 226.201 227.228 226.201 226.5C226.201 225.772 226.345 225.133 226.635 224.582C226.933 224.031 227.344 223.602 227.867 223.294C228.399 222.986 229.005 222.832 229.687 222.832C230.209 222.832 230.681 222.93 231.101 223.126C231.521 223.313 231.88 223.583 232.179 223.938C232.487 224.283 232.715 224.699 232.865 225.184L231.927 225.45H231.773C231.605 224.955 231.339 224.568 230.975 224.288C230.611 223.999 230.181 223.854 229.687 223.854C229.192 223.854 228.763 223.966 228.399 224.19C228.035 224.414 227.75 224.727 227.545 225.128C227.349 225.52 227.251 225.977 227.251 226.5C227.251 227.013 227.349 227.471 227.545 227.872C227.75 228.273 228.035 228.586 228.399 228.81C228.763 229.034 229.192 229.146 229.687 229.146C230.032 229.146 230.34 229.085 230.611 228.964C230.891 228.833 231.133 228.651 231.339 228.418C231.544 228.175 231.707 227.886 231.829 227.55H231.983L232.921 227.816C232.753 228.311 232.51 228.735 232.193 229.09C231.885 229.445 231.521 229.715 231.101 229.902C230.681 230.079 230.209 230.168 229.687 230.168ZM236.598 230.168C236.122 230.168 235.693 230.075 235.31 229.888C234.937 229.701 234.643 229.445 234.428 229.118C234.214 228.791 234.106 228.413 234.106 227.984C234.106 227.377 234.321 226.887 234.75 226.514C235.189 226.131 235.791 225.912 236.556 225.856L239.244 225.66V226.64L236.794 226.822C236.253 226.859 235.847 226.976 235.576 227.172C235.315 227.368 235.184 227.639 235.184 227.984C235.184 228.32 235.32 228.6 235.59 228.824C235.87 229.039 236.23 229.146 236.668 229.146C237.107 229.146 237.504 229.048 237.858 228.852C238.222 228.647 238.507 228.376 238.712 228.04C238.927 227.695 239.034 227.312 239.034 226.892V225.758C239.034 225.198 238.862 224.741 238.516 224.386C238.18 224.022 237.723 223.84 237.144 223.84C236.706 223.84 236.328 223.947 236.01 224.162C235.693 224.367 235.469 224.671 235.338 225.072H235.184L234.26 224.736C234.484 224.111 234.848 223.635 235.352 223.308C235.856 222.981 236.458 222.818 237.158 222.818C238.101 222.818 238.824 223.103 239.328 223.672C239.832 224.232 240.084 225.03 240.084 226.066V230H239.062V227.97L239.426 228.236C239.314 228.609 239.118 228.945 238.838 229.244C238.558 229.533 238.227 229.762 237.844 229.93C237.462 230.089 237.046 230.168 236.598 230.168ZM242.181 230V219.92L243.189 219.794L243.231 219.906V230H242.181ZM248.321 230.168C247.64 230.168 247.033 230.014 246.501 229.706C245.979 229.398 245.568 228.969 245.269 228.418C244.98 227.867 244.835 227.228 244.835 226.5C244.835 225.772 244.98 225.133 245.269 224.582C245.568 224.031 245.979 223.602 246.501 223.294C247.033 222.986 247.64 222.832 248.321 222.832C248.844 222.832 249.315 222.93 249.735 223.126C250.155 223.313 250.515 223.583 250.813 223.938C251.121 224.283 251.35 224.699 251.499 225.184L250.561 225.45H250.407C250.239 224.955 249.973 224.568 249.609 224.288C249.245 223.999 248.816 223.854 248.321 223.854C247.827 223.854 247.397 223.966 247.033 224.19C246.669 224.414 246.385 224.727 246.179 225.128C245.983 225.52 245.885 225.977 245.885 226.5C245.885 227.013 245.983 227.471 246.179 227.872C246.385 228.273 246.669 228.586 247.033 228.81C247.397 229.034 247.827 229.146 248.321 229.146C248.667 229.146 248.975 229.085 249.245 228.964C249.525 228.833 249.768 228.651 249.973 228.418C250.179 228.175 250.342 227.886 250.463 227.55H250.617L251.555 227.816C251.387 228.311 251.145 228.735 250.827 229.09C250.519 229.445 250.155 229.715 249.735 229.902C249.315 230.079 248.844 230.168 248.321 230.168ZM259.055 223V230H258.033V227.97L258.341 228.236C258.22 228.628 258.019 228.969 257.739 229.258C257.468 229.547 257.142 229.771 256.759 229.93C256.376 230.089 255.97 230.168 255.541 230.168C255.037 230.168 254.589 230.061 254.197 229.846C253.814 229.631 253.511 229.314 253.287 228.894C253.063 228.474 252.951 227.951 252.951 227.326V223H254.001V227.088C254.001 227.611 254.08 228.021 254.239 228.32C254.398 228.619 254.612 228.829 254.883 228.95C255.154 229.071 255.452 229.132 255.779 229.132C256.171 229.132 256.535 229.039 256.871 228.852C257.207 228.665 257.478 228.395 257.683 228.04C257.898 227.685 258.005 227.265 258.005 226.78V223H259.055ZM261.089 230V219.92L262.097 219.794L262.139 219.906V230H261.089ZM266.376 230.168C265.9 230.168 265.47 230.075 265.088 229.888C264.714 229.701 264.42 229.445 264.206 229.118C263.991 228.791 263.884 228.413 263.884 227.984C263.884 227.377 264.098 226.887 264.528 226.514C264.966 226.131 265.568 225.912 266.334 225.856L269.022 225.66V226.64L266.572 226.822C266.03 226.859 265.624 226.976 265.354 227.172C265.092 227.368 264.962 227.639 264.962 227.984C264.962 228.32 265.097 228.6 265.368 228.824C265.648 229.039 266.007 229.146 266.446 229.146C266.884 229.146 267.281 229.048 267.636 228.852C268 228.647 268.284 228.376 268.49 228.04C268.704 227.695 268.812 227.312 268.812 226.892V225.758C268.812 225.198 268.639 224.741 268.294 224.386C267.958 224.022 267.5 223.84 266.922 223.84C266.483 223.84 266.105 223.947 265.788 224.162C265.47 224.367 265.246 224.671 265.116 225.072H264.962L264.038 224.736C264.262 224.111 264.626 223.635 265.13 223.308C265.634 222.981 266.236 222.818 266.936 222.818C267.878 222.818 268.602 223.103 269.106 223.672C269.61 224.232 269.862 225.03 269.862 226.066V230H268.84V227.97L269.204 228.236C269.092 228.609 268.896 228.945 268.616 229.244C268.336 229.533 268.004 229.762 267.622 229.93C267.239 230.089 266.824 230.168 266.376 230.168ZM273.821 230C273.243 230 272.767 229.813 272.393 229.44C272.02 229.067 271.833 228.563 271.833 227.928V221.096H272.883V227.858C272.883 228.269 272.967 228.558 273.135 228.726C273.313 228.894 273.602 228.978 274.003 228.978H274.871L274.941 229.132V230H273.821ZM270.629 224.022V223H274.941V224.022H270.629ZM279.259 230.168C278.596 230.168 278.008 230.014 277.495 229.706C276.982 229.398 276.58 228.969 276.291 228.418C276.002 227.867 275.857 227.228 275.857 226.5C275.857 225.772 275.997 225.133 276.277 224.582C276.566 224.031 276.963 223.602 277.467 223.294C277.98 222.986 278.568 222.832 279.231 222.832C279.884 222.832 280.454 222.991 280.939 223.308C281.434 223.616 281.821 224.055 282.101 224.624C282.381 225.184 282.521 225.837 282.521 226.584V226.71L282.311 226.906H276.473V225.884H281.905L281.443 226.08C281.406 225.613 281.284 225.217 281.079 224.89C280.874 224.554 280.612 224.297 280.295 224.12C279.978 223.943 279.623 223.854 279.231 223.854C278.802 223.854 278.41 223.961 278.055 224.176C277.7 224.381 277.42 224.675 277.215 225.058C277.01 225.441 276.907 225.884 276.907 226.388V226.57C276.907 227.074 277.005 227.522 277.201 227.914C277.406 228.297 277.686 228.6 278.041 228.824C278.396 229.039 278.802 229.146 279.259 229.146C279.716 229.146 280.108 229.039 280.435 228.824C280.762 228.609 281.018 228.315 281.205 227.942H281.359L282.241 228.334C281.98 228.894 281.588 229.342 281.065 229.678C280.552 230.005 279.95 230.168 279.259 230.168ZM287.132 230V223H288.154V225.03L287.846 224.764C287.968 224.372 288.168 224.031 288.448 223.742C288.728 223.453 289.055 223.229 289.428 223.07C289.802 222.911 290.184 222.832 290.576 222.832C291.192 222.832 291.72 223.009 292.158 223.364C292.606 223.709 292.896 224.213 293.026 224.876H292.55C292.662 224.465 292.858 224.111 293.138 223.812C293.418 223.504 293.759 223.266 294.16 223.098C294.571 222.921 295.014 222.832 295.49 222.832C295.976 222.832 296.405 222.939 296.778 223.154C297.161 223.369 297.46 223.686 297.674 224.106C297.898 224.526 298.01 225.049 298.01 225.674V230H296.96V225.912C296.96 225.38 296.881 224.969 296.722 224.68C296.564 224.381 296.354 224.171 296.092 224.05C295.84 223.929 295.56 223.868 295.252 223.868C294.916 223.868 294.58 223.957 294.244 224.134C293.918 224.311 293.642 224.577 293.418 224.932C293.204 225.277 293.096 225.707 293.096 226.22V230H292.046V225.912C292.046 225.38 291.967 224.969 291.808 224.68C291.65 224.381 291.44 224.171 291.178 224.05C290.926 223.929 290.646 223.868 290.338 223.868C290.002 223.868 289.666 223.961 289.33 224.148C289.004 224.325 288.728 224.591 288.504 224.946C288.29 225.291 288.182 225.716 288.182 226.22V230H287.132ZM300.482 232.8V232.688L301.616 230L301.98 229.23L304.514 223H305.606V223.112L301.546 232.8H300.482ZM301.63 230L298.788 223.112V223H299.88L302.274 228.936V230H301.63ZM309.376 230V223H310.398V225.03L310.09 224.764C310.212 224.372 310.412 224.031 310.692 223.742C310.972 223.453 311.299 223.229 311.672 223.07C312.046 222.911 312.428 222.832 312.82 222.832C313.436 222.832 313.964 223.009 314.402 223.364C314.85 223.709 315.14 224.213 315.27 224.876H314.794C314.906 224.465 315.102 224.111 315.382 223.812C315.662 223.504 316.003 223.266 316.404 223.098C316.815 222.921 317.258 222.832 317.734 222.832C318.22 222.832 318.649 222.939 319.022 223.154C319.405 223.369 319.704 223.686 319.918 224.106C320.142 224.526 320.254 225.049 320.254 225.674V230H319.204V225.912C319.204 225.38 319.125 224.969 318.966 224.68C318.808 224.381 318.598 224.171 318.336 224.05C318.084 223.929 317.804 223.868 317.496 223.868C317.16 223.868 316.824 223.957 316.488 224.134C316.162 224.311 315.886 224.577 315.662 224.932C315.448 225.277 315.34 225.707 315.34 226.22V230H314.29V225.912C314.29 225.38 314.211 224.969 314.052 224.68C313.894 224.381 313.684 224.171 313.422 224.05C313.17 223.929 312.89 223.868 312.582 223.868C312.246 223.868 311.91 223.961 311.574 224.148C311.248 224.325 310.972 224.591 310.748 224.946C310.534 225.291 310.426 225.716 310.426 226.22V230H309.376ZM325.17 230.168C324.498 230.168 323.901 230.014 323.378 229.706C322.865 229.398 322.459 228.969 322.16 228.418C321.871 227.867 321.726 227.228 321.726 226.5C321.726 225.772 321.871 225.133 322.16 224.582C322.459 224.031 322.865 223.602 323.378 223.294C323.901 222.986 324.498 222.832 325.17 222.832C325.851 222.832 326.449 222.986 326.962 223.294C327.475 223.602 327.877 224.031 328.166 224.582C328.465 225.133 328.614 225.772 328.614 226.5C328.614 227.228 328.465 227.867 328.166 228.418C327.877 228.969 327.475 229.398 326.962 229.706C326.449 230.014 325.851 230.168 325.17 230.168ZM325.17 229.146C325.637 229.146 326.047 229.039 326.402 228.824C326.766 228.6 327.051 228.292 327.256 227.9C327.461 227.499 327.564 227.032 327.564 226.5C327.564 225.959 327.461 225.492 327.256 225.1C327.051 224.708 326.766 224.405 326.402 224.19C326.047 223.966 325.637 223.854 325.17 223.854C324.703 223.854 324.288 223.966 323.924 224.19C323.569 224.405 323.289 224.708 323.084 225.1C322.879 225.492 322.776 225.959 322.776 226.5C322.776 227.032 322.879 227.499 323.084 227.9C323.289 228.292 323.569 228.6 323.924 228.824C324.288 229.039 324.703 229.146 325.17 229.146ZM330.158 230V223H331.18V225.03L330.872 224.764C330.993 224.372 331.194 224.031 331.474 223.742C331.754 223.453 332.08 223.229 332.454 223.07C332.836 222.911 333.242 222.832 333.672 222.832C334.176 222.832 334.624 222.939 335.016 223.154C335.408 223.369 335.711 223.686 335.926 224.106C336.15 224.526 336.262 225.049 336.262 225.674V230H335.212V225.912C335.212 225.38 335.132 224.969 334.974 224.68C334.815 224.381 334.6 224.171 334.33 224.05C334.068 223.929 333.77 223.868 333.434 223.868C333.051 223.868 332.687 223.961 332.342 224.148C332.006 224.335 331.73 224.605 331.516 224.96C331.31 225.305 331.208 225.725 331.208 226.22V230H330.158ZM340.226 230C339.647 230 339.171 229.813 338.798 229.44C338.424 229.067 338.238 228.563 338.238 227.928V221.096H339.288V227.858C339.288 228.269 339.372 228.558 339.54 228.726C339.717 228.894 340.006 228.978 340.408 228.978H341.276L341.346 229.132V230H340.226ZM337.034 224.022V223H341.346V224.022H337.034ZM343.025 230V219.92L344.033 219.794L344.075 219.906V225.03L343.739 224.764C343.86 224.372 344.061 224.031 344.341 223.742C344.621 223.453 344.947 223.229 345.321 223.07C345.703 222.911 346.109 222.832 346.539 222.832C347.043 222.832 347.491 222.939 347.883 223.154C348.275 223.369 348.578 223.686 348.793 224.106C349.017 224.526 349.129 225.049 349.129 225.674V230H348.079V225.912C348.079 225.38 347.999 224.969 347.841 224.68C347.682 224.381 347.467 224.171 347.197 224.05C346.935 223.929 346.637 223.868 346.301 223.868C345.918 223.868 345.554 223.961 345.209 224.148C344.873 224.335 344.597 224.605 344.383 224.96C344.177 225.305 344.075 225.725 344.075 226.22V230H343.025ZM351.228 230V219.92L352.236 219.794L352.278 219.906V230H351.228ZM355.156 232.8V232.688L356.29 230L356.654 229.23L359.188 223H360.28V223.112L356.22 232.8H355.156ZM356.304 230L353.462 223.112V223H354.554L356.948 228.936V230H356.304ZM154.98 251V244H156.03V251H154.98ZM155.512 242.628C155.297 242.628 155.115 242.553 154.966 242.404C154.817 242.255 154.742 242.073 154.742 241.858C154.742 241.643 154.817 241.461 154.966 241.312C155.115 241.163 155.297 241.088 155.512 241.088C155.727 241.088 155.909 241.163 156.058 241.312C156.207 241.461 156.282 241.643 156.282 241.858C156.282 242.073 156.207 242.255 156.058 242.404C155.909 242.553 155.727 242.628 155.512 242.628ZM157.988 251V244H159.01V246.03L158.702 245.764C158.823 245.372 159.024 245.031 159.304 244.742C159.584 244.453 159.91 244.229 160.284 244.07C160.666 243.911 161.072 243.832 161.502 243.832C162.006 243.832 162.454 243.939 162.846 244.154C163.238 244.369 163.541 244.686 163.756 245.106C163.98 245.526 164.092 246.049 164.092 246.674V251H163.042V246.912C163.042 246.38 162.962 245.969 162.804 245.68C162.645 245.381 162.43 245.171 162.16 245.05C161.898 244.929 161.6 244.868 161.264 244.868C160.881 244.868 160.517 244.961 160.172 245.148C159.836 245.335 159.56 245.605 159.346 245.96C159.14 246.305 159.038 246.725 159.038 247.22V251H157.988ZM169.052 251.168C168.371 251.168 167.764 251.014 167.232 250.706C166.709 250.398 166.299 249.969 166 249.418C165.711 248.867 165.566 248.228 165.566 247.5C165.566 246.772 165.711 246.133 166 245.582C166.299 245.031 166.709 244.602 167.232 244.294C167.764 243.986 168.371 243.832 169.052 243.832C169.575 243.832 170.046 243.93 170.466 244.126C170.886 244.313 171.245 244.583 171.544 244.938C171.852 245.283 172.081 245.699 172.23 246.184L171.292 246.45H171.138C170.97 245.955 170.704 245.568 170.34 245.288C169.976 244.999 169.547 244.854 169.052 244.854C168.557 244.854 168.128 244.966 167.764 245.19C167.4 245.414 167.115 245.727 166.91 246.128C166.714 246.52 166.616 246.977 166.616 247.5C166.616 248.013 166.714 248.471 166.91 248.872C167.115 249.273 167.4 249.586 167.764 249.81C168.128 250.034 168.557 250.146 169.052 250.146C169.397 250.146 169.705 250.085 169.976 249.964C170.256 249.833 170.499 249.651 170.704 249.418C170.909 249.175 171.073 248.886 171.194 248.55H171.348L172.286 248.816C172.118 249.311 171.875 249.735 171.558 250.09C171.25 250.445 170.886 250.715 170.466 250.902C170.046 251.079 169.575 251.168 169.052 251.168ZM176.775 251.168C176.103 251.168 175.506 251.014 174.983 250.706C174.47 250.398 174.064 249.969 173.765 249.418C173.476 248.867 173.331 248.228 173.331 247.5C173.331 246.772 173.476 246.133 173.765 245.582C174.064 245.031 174.47 244.602 174.983 244.294C175.506 243.986 176.103 243.832 176.775 243.832C177.457 243.832 178.054 243.986 178.567 244.294C179.081 244.602 179.482 245.031 179.771 245.582C180.07 246.133 180.219 246.772 180.219 247.5C180.219 248.228 180.07 248.867 179.771 249.418C179.482 249.969 179.081 250.398 178.567 250.706C178.054 251.014 177.457 251.168 176.775 251.168ZM176.775 250.146C177.242 250.146 177.653 250.039 178.007 249.824C178.371 249.6 178.656 249.292 178.861 248.9C179.067 248.499 179.169 248.032 179.169 247.5C179.169 246.959 179.067 246.492 178.861 246.1C178.656 245.708 178.371 245.405 178.007 245.19C177.653 244.966 177.242 244.854 176.775 244.854C176.309 244.854 175.893 244.966 175.529 245.19C175.175 245.405 174.895 245.708 174.689 246.1C174.484 246.492 174.381 246.959 174.381 247.5C174.381 248.032 174.484 248.499 174.689 248.9C174.895 249.292 175.175 249.6 175.529 249.824C175.893 250.039 176.309 250.146 176.775 250.146ZM181.763 251V244H182.785V246.03L182.477 245.764C182.599 245.372 182.799 245.031 183.079 244.742C183.359 244.453 183.686 244.229 184.059 244.07C184.433 243.911 184.815 243.832 185.207 243.832C185.823 243.832 186.351 244.009 186.789 244.364C187.237 244.709 187.527 245.213 187.657 245.876H187.181C187.293 245.465 187.489 245.111 187.769 244.812C188.049 244.504 188.39 244.266 188.791 244.098C189.202 243.921 189.645 243.832 190.121 243.832C190.607 243.832 191.036 243.939 191.409 244.154C191.792 244.369 192.091 244.686 192.305 245.106C192.529 245.526 192.641 246.049 192.641 246.674V251H191.591V246.912C191.591 246.38 191.512 245.969 191.353 245.68C191.195 245.381 190.985 245.171 190.723 245.05C190.471 244.929 190.191 244.868 189.883 244.868C189.547 244.868 189.211 244.957 188.875 245.134C188.549 245.311 188.273 245.577 188.049 245.932C187.835 246.277 187.727 246.707 187.727 247.22V251H186.677V246.912C186.677 246.38 186.598 245.969 186.439 245.68C186.281 245.381 186.071 245.171 185.809 245.05C185.557 244.929 185.277 244.868 184.969 244.868C184.633 244.868 184.297 244.961 183.961 245.148C183.635 245.325 183.359 245.591 183.135 245.946C182.921 246.291 182.813 246.716 182.813 247.22V251H181.763ZM197.515 251.168C196.852 251.168 196.264 251.014 195.751 250.706C195.237 250.398 194.836 249.969 194.547 249.418C194.257 248.867 194.113 248.228 194.113 247.5C194.113 246.772 194.253 246.133 194.533 245.582C194.822 245.031 195.219 244.602 195.723 244.294C196.236 243.986 196.824 243.832 197.487 243.832C198.14 243.832 198.709 243.991 199.195 244.308C199.689 244.616 200.077 245.055 200.357 245.624C200.637 246.184 200.777 246.837 200.777 247.584V247.71L200.567 247.906H194.729V246.884H200.161L199.699 247.08C199.661 246.613 199.54 246.217 199.335 245.89C199.129 245.554 198.868 245.297 198.551 245.12C198.233 244.943 197.879 244.854 197.487 244.854C197.057 244.854 196.665 244.961 196.311 245.176C195.956 245.381 195.676 245.675 195.471 246.058C195.265 246.441 195.163 246.884 195.163 247.388V247.57C195.163 248.074 195.261 248.522 195.457 248.914C195.662 249.297 195.942 249.6 196.297 249.824C196.651 250.039 197.057 250.146 197.515 250.146C197.972 250.146 198.364 250.039 198.691 249.824C199.017 249.609 199.274 249.315 199.461 248.942H199.615L200.497 249.334C200.235 249.894 199.843 250.342 199.321 250.678C198.807 251.005 198.205 251.168 197.515 251.168ZM207.95 251C207.372 251 206.896 250.813 206.522 250.44C206.149 250.067 205.962 249.563 205.962 248.928V242.096H207.012V248.858C207.012 249.269 207.096 249.558 207.264 249.726C207.442 249.894 207.731 249.978 208.132 249.978H209L209.07 250.132V251H207.95ZM204.758 245.022V244H209.07V245.022H204.758ZM212.618 251.168C212.142 251.168 211.712 251.075 211.33 250.888C210.956 250.701 210.662 250.445 210.448 250.118C210.233 249.791 210.126 249.413 210.126 248.984C210.126 248.377 210.34 247.887 210.77 247.514C211.208 247.131 211.81 246.912 212.576 246.856L215.264 246.66V247.64L212.814 247.822C212.272 247.859 211.866 247.976 211.596 248.172C211.334 248.368 211.204 248.639 211.204 248.984C211.204 249.32 211.339 249.6 211.61 249.824C211.89 250.039 212.249 250.146 212.688 250.146C213.126 250.146 213.523 250.048 213.878 249.852C214.242 249.647 214.526 249.376 214.732 249.04C214.946 248.695 215.054 248.312 215.054 247.892V246.758C215.054 246.198 214.881 245.741 214.536 245.386C214.2 245.022 213.742 244.84 213.164 244.84C212.725 244.84 212.347 244.947 212.03 245.162C211.712 245.367 211.488 245.671 211.358 246.072H211.204L210.28 245.736C210.504 245.111 210.868 244.635 211.372 244.308C211.876 243.981 212.478 243.818 213.178 243.818C214.12 243.818 214.844 244.103 215.348 244.672C215.852 245.232 216.104 246.03 216.104 247.066V251H215.082V248.97L215.446 249.236C215.334 249.609 215.138 249.945 214.858 250.244C214.578 250.533 214.246 250.762 213.864 250.93C213.481 251.089 213.066 251.168 212.618 251.168ZM221.998 251L217.084 244.112V244H218.274L223.188 250.888V251H221.998ZM217.084 251V250.888L219.856 247.024L220.5 247.836L218.274 251H217.084ZM220.584 247.864L219.94 247.024L222.04 244H223.188V244.112L220.584 247.864ZM230.888 251.168C230.412 251.168 229.973 251.075 229.572 250.888C229.171 250.692 228.825 250.421 228.536 250.076C228.247 249.731 228.032 249.329 227.892 248.872V246.128C228.032 245.661 228.247 245.26 228.536 244.924C228.825 244.579 229.171 244.313 229.572 244.126C229.973 243.93 230.412 243.832 230.888 243.832C231.513 243.832 232.073 243.991 232.568 244.308C233.063 244.625 233.455 245.059 233.744 245.61C234.043 246.161 234.192 246.791 234.192 247.5C234.192 248.209 234.043 248.839 233.744 249.39C233.455 249.941 233.063 250.375 232.568 250.692C232.073 251.009 231.513 251.168 230.888 251.168ZM227.388 251V240.92L228.396 240.794L228.438 240.906V246.618L228.242 247.5L228.41 248.382V251H227.388ZM230.846 250.146C231.294 250.146 231.691 250.034 232.036 249.81C232.381 249.586 232.652 249.278 232.848 248.886C233.044 248.485 233.142 248.023 233.142 247.5C233.142 246.977 233.044 246.52 232.848 246.128C232.652 245.727 232.381 245.414 232.036 245.19C231.691 244.966 231.294 244.854 230.846 244.854C230.389 244.854 229.978 244.966 229.614 245.19C229.25 245.414 228.961 245.727 228.746 246.128C228.541 246.52 228.438 246.977 228.438 247.5C228.438 248.023 228.541 248.485 228.746 248.886C228.961 249.278 229.25 249.586 229.614 249.81C229.978 250.034 230.389 250.146 230.846 250.146ZM237.938 251.168C237.462 251.168 237.033 251.075 236.65 250.888C236.277 250.701 235.983 250.445 235.768 250.118C235.553 249.791 235.446 249.413 235.446 248.984C235.446 248.377 235.661 247.887 236.09 247.514C236.529 247.131 237.131 246.912 237.896 246.856L240.584 246.66V247.64L238.134 247.822C237.593 247.859 237.187 247.976 236.916 248.172C236.655 248.368 236.524 248.639 236.524 248.984C236.524 249.32 236.659 249.6 236.93 249.824C237.21 250.039 237.569 250.146 238.008 250.146C238.447 250.146 238.843 250.048 239.198 249.852C239.562 249.647 239.847 249.376 240.052 249.04C240.267 248.695 240.374 248.312 240.374 247.892V246.758C240.374 246.198 240.201 245.741 239.856 245.386C239.52 245.022 239.063 244.84 238.484 244.84C238.045 244.84 237.667 244.947 237.35 245.162C237.033 245.367 236.809 245.671 236.678 246.072H236.524L235.6 245.736C235.824 245.111 236.188 244.635 236.692 244.308C237.196 243.981 237.798 243.818 238.498 243.818C239.441 243.818 240.164 244.103 240.668 244.672C241.172 245.232 241.424 246.03 241.424 247.066V251H240.402V248.97L240.766 249.236C240.654 249.609 240.458 249.945 240.178 250.244C239.898 250.533 239.567 250.762 239.184 250.93C238.801 251.089 238.386 251.168 237.938 251.168ZM245.554 251.168C244.835 251.168 244.229 250.995 243.734 250.65C243.239 250.295 242.913 249.801 242.754 249.166L243.72 248.928L243.874 248.956C243.977 249.329 244.191 249.623 244.518 249.838C244.845 250.043 245.227 250.146 245.666 250.146C246.105 250.146 246.478 250.048 246.786 249.852C247.103 249.647 247.262 249.381 247.262 249.054C247.262 248.783 247.169 248.569 246.982 248.41C246.805 248.242 246.534 248.116 246.17 248.032L244.882 247.738C244.229 247.589 243.748 247.351 243.44 247.024C243.141 246.688 242.992 246.291 242.992 245.834C242.992 245.442 243.099 245.097 243.314 244.798C243.529 244.499 243.823 244.266 244.196 244.098C244.579 243.921 245.013 243.832 245.498 243.832C246.207 243.832 246.805 244.009 247.29 244.364C247.775 244.719 248.097 245.218 248.256 245.862L247.276 246.072L247.122 246.044C247.029 245.661 246.823 245.367 246.506 245.162C246.198 244.957 245.853 244.854 245.47 244.854C245.069 244.854 244.733 244.943 244.462 245.12C244.201 245.297 244.07 245.521 244.07 245.792C244.07 246.025 244.154 246.221 244.322 246.38C244.499 246.529 244.779 246.646 245.162 246.73L246.464 247.024C247.108 247.173 247.579 247.411 247.878 247.738C248.186 248.065 248.34 248.48 248.34 248.984C248.34 249.432 248.219 249.819 247.976 250.146C247.733 250.473 247.402 250.725 246.982 250.902C246.571 251.079 246.095 251.168 245.554 251.168ZM252.776 251.168C252.114 251.168 251.526 251.014 251.012 250.706C250.499 250.398 250.098 249.969 249.808 249.418C249.519 248.867 249.374 248.228 249.374 247.5C249.374 246.772 249.514 246.133 249.794 245.582C250.084 245.031 250.48 244.602 250.984 244.294C251.498 243.986 252.086 243.832 252.748 243.832C253.402 243.832 253.971 243.991 254.456 244.308C254.951 244.616 255.338 245.055 255.618 245.624C255.898 246.184 256.038 246.837 256.038 247.584V247.71L255.828 247.906H249.99V246.884H255.422L254.96 247.08C254.923 246.613 254.802 246.217 254.596 245.89C254.391 245.554 254.13 245.297 253.812 245.12C253.495 244.943 253.14 244.854 252.748 244.854C252.319 244.854 251.927 244.961 251.572 245.176C251.218 245.381 250.938 245.675 250.732 246.058C250.527 246.441 250.424 246.884 250.424 247.388V247.57C250.424 248.074 250.522 248.522 250.718 248.914C250.924 249.297 251.204 249.6 251.558 249.824C251.913 250.039 252.319 250.146 252.776 250.146C253.234 250.146 253.626 250.039 253.952 249.824C254.279 249.609 254.536 249.315 254.722 248.942H254.876L255.758 249.334C255.497 249.894 255.105 250.342 254.582 250.678C254.069 251.005 253.467 251.168 252.776 251.168ZM260.458 251.168C259.842 251.168 259.282 251.009 258.778 250.692C258.283 250.375 257.886 249.941 257.588 249.39C257.298 248.839 257.154 248.209 257.154 247.5C257.154 246.791 257.298 246.161 257.588 245.61C257.886 245.059 258.283 244.625 258.778 244.308C259.282 243.991 259.842 243.832 260.458 243.832C260.934 243.832 261.372 243.93 261.774 244.126C262.175 244.313 262.52 244.579 262.81 244.924C263.099 245.26 263.314 245.661 263.454 246.128V248.872C263.314 249.329 263.099 249.731 262.81 250.076C262.52 250.421 262.175 250.692 261.774 250.888C261.372 251.075 260.934 251.168 260.458 251.168ZM260.5 250.146C260.966 250.146 261.377 250.034 261.732 249.81C262.096 249.586 262.38 249.278 262.586 248.886C262.8 248.485 262.908 248.023 262.908 247.5C262.908 246.977 262.8 246.52 262.586 246.128C262.38 245.727 262.096 245.414 261.732 245.19C261.377 244.966 260.966 244.854 260.5 244.854C260.061 244.854 259.664 244.966 259.31 245.19C258.964 245.414 258.694 245.727 258.498 246.128C258.302 246.52 258.204 246.977 258.204 247.5C258.204 248.023 258.302 248.485 258.498 248.886C258.694 249.278 258.964 249.586 259.31 249.81C259.664 250.034 260.061 250.146 260.5 250.146ZM262.936 251V248.382L263.104 247.5L262.908 246.618V240.92L263.916 240.794L263.958 240.906V251H262.936ZM272.082 251.168C271.41 251.168 270.813 251.014 270.29 250.706C269.777 250.398 269.371 249.969 269.072 249.418C268.783 248.867 268.638 248.228 268.638 247.5C268.638 246.772 268.783 246.133 269.072 245.582C269.371 245.031 269.777 244.602 270.29 244.294C270.813 243.986 271.41 243.832 272.082 243.832C272.763 243.832 273.361 243.986 273.874 244.294C274.387 244.602 274.789 245.031 275.078 245.582C275.377 246.133 275.526 246.772 275.526 247.5C275.526 248.228 275.377 248.867 275.078 249.418C274.789 249.969 274.387 250.398 273.874 250.706C273.361 251.014 272.763 251.168 272.082 251.168ZM272.082 250.146C272.549 250.146 272.959 250.039 273.314 249.824C273.678 249.6 273.963 249.292 274.168 248.9C274.373 248.499 274.476 248.032 274.476 247.5C274.476 246.959 274.373 246.492 274.168 246.1C273.963 245.708 273.678 245.405 273.314 245.19C272.959 244.966 272.549 244.854 272.082 244.854C271.615 244.854 271.2 244.966 270.836 245.19C270.481 245.405 270.201 245.708 269.996 246.1C269.791 246.492 269.688 246.959 269.688 247.5C269.688 248.032 269.791 248.499 269.996 248.9C270.201 249.292 270.481 249.6 270.836 249.824C271.2 250.039 271.615 250.146 272.082 250.146ZM277.07 251V244H278.092V246.03L277.784 245.764C277.905 245.372 278.106 245.031 278.386 244.742C278.666 244.453 278.993 244.229 279.366 244.07C279.749 243.911 280.155 243.832 280.584 243.832C281.088 243.832 281.536 243.939 281.928 244.154C282.32 244.369 282.623 244.686 282.838 245.106C283.062 245.526 283.174 246.049 283.174 246.674V251H282.124V246.912C282.124 246.38 282.045 245.969 281.886 245.68C281.727 245.381 281.513 245.171 281.242 245.05C280.981 244.929 280.682 244.868 280.346 244.868C279.963 244.868 279.599 244.961 279.254 245.148C278.918 245.335 278.643 245.605 278.428 245.96C278.223 246.305 278.12 246.725 278.12 247.22V251H277.07ZM288.144 251V244H289.166V246.03L288.858 245.764C288.979 245.372 289.18 245.031 289.46 244.742C289.74 244.453 290.067 244.229 290.44 244.07C290.813 243.911 291.196 243.832 291.588 243.832C292.204 243.832 292.731 244.009 293.17 244.364C293.618 244.709 293.907 245.213 294.038 245.876H293.562C293.674 245.465 293.87 245.111 294.15 244.812C294.43 244.504 294.771 244.266 295.172 244.098C295.583 243.921 296.026 243.832 296.502 243.832C296.987 243.832 297.417 243.939 297.79 244.154C298.173 244.369 298.471 244.686 298.686 245.106C298.91 245.526 299.022 246.049 299.022 246.674V251H297.972V246.912C297.972 246.38 297.893 245.969 297.734 245.68C297.575 245.381 297.365 245.171 297.104 245.05C296.852 244.929 296.572 244.868 296.264 244.868C295.928 244.868 295.592 244.957 295.256 245.134C294.929 245.311 294.654 245.577 294.43 245.932C294.215 246.277 294.108 246.707 294.108 247.22V251H293.058V246.912C293.058 246.38 292.979 245.969 292.82 245.68C292.661 245.381 292.451 245.171 292.19 245.05C291.938 244.929 291.658 244.868 291.35 244.868C291.014 244.868 290.678 244.961 290.342 245.148C290.015 245.325 289.74 245.591 289.516 245.946C289.301 246.291 289.194 246.716 289.194 247.22V251H288.144ZM301.494 253.8V253.688L302.628 251L302.992 250.23L305.526 244H306.618V244.112L302.558 253.8H301.494ZM302.642 251L299.8 244.112V244H300.892L303.286 249.936V251H302.642ZM312.6 251.168C312.124 251.168 311.695 251.075 311.312 250.888C310.939 250.701 310.645 250.445 310.43 250.118C310.216 249.791 310.108 249.413 310.108 248.984C310.108 248.377 310.323 247.887 310.752 247.514C311.191 247.131 311.793 246.912 312.558 246.856L315.246 246.66V247.64L312.796 247.822C312.255 247.859 311.849 247.976 311.578 248.172C311.317 248.368 311.186 248.639 311.186 248.984C311.186 249.32 311.322 249.6 311.592 249.824C311.872 250.039 312.232 250.146 312.67 250.146C313.109 250.146 313.506 250.048 313.86 249.852C314.224 249.647 314.509 249.376 314.714 249.04C314.929 248.695 315.036 248.312 315.036 247.892V246.758C315.036 246.198 314.864 245.741 314.518 245.386C314.182 245.022 313.725 244.84 313.146 244.84C312.708 244.84 312.33 244.947 312.012 245.162C311.695 245.367 311.471 245.671 311.34 246.072H311.186L310.262 245.736C310.486 245.111 310.85 244.635 311.354 244.308C311.858 243.981 312.46 243.818 313.16 243.818C314.103 243.818 314.826 244.103 315.33 244.672C315.834 245.232 316.086 246.03 316.086 247.066V251H315.064V248.97L315.428 249.236C315.316 249.609 315.12 249.945 314.84 250.244C314.56 250.533 314.229 250.762 313.846 250.93C313.464 251.089 313.048 251.168 312.6 251.168ZM321.042 251.168C320.361 251.168 319.754 251.014 319.222 250.706C318.699 250.398 318.289 249.969 317.99 249.418C317.701 248.867 317.556 248.228 317.556 247.5C317.556 246.772 317.701 246.133 317.99 245.582C318.289 245.031 318.699 244.602 319.222 244.294C319.754 243.986 320.361 243.832 321.042 243.832C321.565 243.832 322.036 243.93 322.456 244.126C322.876 244.313 323.235 244.583 323.534 244.938C323.842 245.283 324.071 245.699 324.22 246.184L323.282 246.45H323.128C322.96 245.955 322.694 245.568 322.33 245.288C321.966 244.999 321.537 244.854 321.042 244.854C320.547 244.854 320.118 244.966 319.754 245.19C319.39 245.414 319.105 245.727 318.9 246.128C318.704 246.52 318.606 246.977 318.606 247.5C318.606 248.013 318.704 248.471 318.9 248.872C319.105 249.273 319.39 249.586 319.754 249.81C320.118 250.034 320.547 250.146 321.042 250.146C321.387 250.146 321.695 250.085 321.966 249.964C322.246 249.833 322.489 249.651 322.694 249.418C322.899 249.175 323.063 248.886 323.184 248.55H323.338L324.276 248.816C324.108 249.311 323.865 249.735 323.548 250.09C323.24 250.445 322.876 250.715 322.456 250.902C322.036 251.079 321.565 251.168 321.042 251.168ZM328.808 251.168C328.126 251.168 327.52 251.014 326.988 250.706C326.465 250.398 326.054 249.969 325.756 249.418C325.466 248.867 325.322 248.228 325.322 247.5C325.322 246.772 325.466 246.133 325.756 245.582C326.054 245.031 326.465 244.602 326.988 244.294C327.52 243.986 328.126 243.832 328.808 243.832C329.33 243.832 329.802 243.93 330.222 244.126C330.642 244.313 331.001 244.583 331.3 244.938C331.608 245.283 331.836 245.699 331.986 246.184L331.048 246.45H330.894C330.726 245.955 330.46 245.568 330.096 245.288C329.732 244.999 329.302 244.854 328.808 244.854C328.313 244.854 327.884 244.966 327.52 245.19C327.156 245.414 326.871 245.727 326.666 246.128C326.47 246.52 326.372 246.977 326.372 247.5C326.372 248.013 326.47 248.471 326.666 248.872C326.871 249.273 327.156 249.586 327.52 249.81C327.884 250.034 328.313 250.146 328.808 250.146C329.153 250.146 329.461 250.085 329.732 249.964C330.012 249.833 330.254 249.651 330.46 249.418C330.665 249.175 330.828 248.886 330.95 248.55H331.104L332.042 248.816C331.874 249.311 331.631 249.735 331.314 250.09C331.006 250.445 330.642 250.715 330.222 250.902C329.802 251.079 329.33 251.168 328.808 251.168ZM336.531 251.168C335.859 251.168 335.262 251.014 334.739 250.706C334.226 250.398 333.82 249.969 333.521 249.418C333.232 248.867 333.087 248.228 333.087 247.5C333.087 246.772 333.232 246.133 333.521 245.582C333.82 245.031 334.226 244.602 334.739 244.294C335.262 243.986 335.859 243.832 336.531 243.832C337.213 243.832 337.81 243.986 338.323 244.294C338.837 244.602 339.238 245.031 339.527 245.582C339.826 246.133 339.975 246.772 339.975 247.5C339.975 248.228 339.826 248.867 339.527 249.418C339.238 249.969 338.837 250.398 338.323 250.706C337.81 251.014 337.213 251.168 336.531 251.168ZM336.531 250.146C336.998 250.146 337.409 250.039 337.763 249.824C338.127 249.6 338.412 249.292 338.617 248.9C338.823 248.499 338.925 248.032 338.925 247.5C338.925 246.959 338.823 246.492 338.617 246.1C338.412 245.708 338.127 245.405 337.763 245.19C337.409 244.966 336.998 244.854 336.531 244.854C336.065 244.854 335.649 244.966 335.285 245.19C334.931 245.405 334.651 245.708 334.445 246.1C334.24 246.492 334.137 246.959 334.137 247.5C334.137 248.032 334.24 248.499 334.445 248.9C334.651 249.292 334.931 249.6 335.285 249.824C335.649 250.039 336.065 250.146 336.531 250.146ZM347.553 244V251H346.531V248.97L346.839 249.236C346.718 249.628 346.517 249.969 346.237 250.258C345.966 250.547 345.64 250.771 345.257 250.93C344.874 251.089 344.468 251.168 344.039 251.168C343.535 251.168 343.087 251.061 342.695 250.846C342.312 250.631 342.009 250.314 341.785 249.894C341.561 249.474 341.449 248.951 341.449 248.326V244H342.499V248.088C342.499 248.611 342.578 249.021 342.737 249.32C342.896 249.619 343.11 249.829 343.381 249.95C343.652 250.071 343.95 250.132 344.277 250.132C344.669 250.132 345.033 250.039 345.369 249.852C345.705 249.665 345.976 249.395 346.181 249.04C346.396 248.685 346.503 248.265 346.503 247.78V244H347.553ZM349.517 251V244H350.539V246.03L350.231 245.764C350.352 245.372 350.553 245.031 350.833 244.742C351.113 244.453 351.44 244.229 351.813 244.07C352.196 243.911 352.602 243.832 353.031 243.832C353.535 243.832 353.983 243.939 354.375 244.154C354.767 244.369 355.07 244.686 355.285 245.106C355.509 245.526 355.621 246.049 355.621 246.674V251H354.571V246.912C354.571 246.38 354.492 245.969 354.333 245.68C354.174 245.381 353.96 245.171 353.689 245.05C353.428 244.929 353.129 244.868 352.793 244.868C352.41 244.868 352.046 244.961 351.701 245.148C351.365 245.335 351.09 245.605 350.875 245.96C350.67 246.305 350.567 246.725 350.567 247.22V251H349.517ZM359.585 251C359.006 251 358.53 250.813 358.157 250.44C357.784 250.067 357.597 249.563 357.597 248.928V242.096H358.647V248.858C358.647 249.269 358.731 249.558 358.899 249.726C359.076 249.894 359.366 249.978 359.767 249.978H360.635L360.705 250.132V251H359.585ZM356.393 245.022V244H360.705V245.022H356.393ZM157.22 272.168C156.501 272.168 155.895 271.995 155.4 271.65C154.905 271.295 154.579 270.801 154.42 270.166L155.386 269.928L155.54 269.956C155.643 270.329 155.857 270.623 156.184 270.838C156.511 271.043 156.893 271.146 157.332 271.146C157.771 271.146 158.144 271.048 158.452 270.852C158.769 270.647 158.928 270.381 158.928 270.054C158.928 269.783 158.835 269.569 158.648 269.41C158.471 269.242 158.2 269.116 157.836 269.032L156.548 268.738C155.895 268.589 155.414 268.351 155.106 268.024C154.807 267.688 154.658 267.291 154.658 266.834C154.658 266.442 154.765 266.097 154.98 265.798C155.195 265.499 155.489 265.266 155.862 265.098C156.245 264.921 156.679 264.832 157.164 264.832C157.873 264.832 158.471 265.009 158.956 265.364C159.441 265.719 159.763 266.218 159.922 266.862L158.942 267.072L158.788 267.044C158.695 266.661 158.489 266.367 158.172 266.162C157.864 265.957 157.519 265.854 157.136 265.854C156.735 265.854 156.399 265.943 156.128 266.12C155.867 266.297 155.736 266.521 155.736 266.792C155.736 267.025 155.82 267.221 155.988 267.38C156.165 267.529 156.445 267.646 156.828 267.73L158.13 268.024C158.774 268.173 159.245 268.411 159.544 268.738C159.852 269.065 160.006 269.48 160.006 269.984C160.006 270.432 159.885 270.819 159.642 271.146C159.399 271.473 159.068 271.725 158.648 271.902C158.237 272.079 157.761 272.168 157.22 272.168ZM163.749 272C163.17 272 162.694 271.813 162.321 271.44C161.948 271.067 161.761 270.563 161.761 269.928V263.096H162.811V269.858C162.811 270.269 162.895 270.558 163.063 270.726C163.24 270.894 163.53 270.978 163.931 270.978H164.799L164.869 271.132V272H163.749ZM160.557 266.022V265H164.869V266.022H160.557ZM168.417 272.168C167.941 272.168 167.511 272.075 167.129 271.888C166.755 271.701 166.461 271.445 166.247 271.118C166.032 270.791 165.925 270.413 165.925 269.984C165.925 269.377 166.139 268.887 166.569 268.514C167.007 268.131 167.609 267.912 168.375 267.856L171.063 267.66V268.64L168.613 268.822C168.071 268.859 167.665 268.976 167.395 269.172C167.133 269.368 167.003 269.639 167.003 269.984C167.003 270.32 167.138 270.6 167.409 270.824C167.689 271.039 168.048 271.146 168.487 271.146C168.925 271.146 169.322 271.048 169.677 270.852C170.041 270.647 170.325 270.376 170.531 270.04C170.745 269.695 170.853 269.312 170.853 268.892V267.758C170.853 267.198 170.68 266.741 170.335 266.386C169.999 266.022 169.541 265.84 168.963 265.84C168.524 265.84 168.146 265.947 167.829 266.162C167.511 266.367 167.287 266.671 167.157 267.072H167.003L166.079 266.736C166.303 266.111 166.667 265.635 167.171 265.308C167.675 264.981 168.277 264.818 168.977 264.818C169.919 264.818 170.643 265.103 171.147 265.672C171.651 266.232 171.903 267.03 171.903 268.066V272H170.881V269.97L171.245 270.236C171.133 270.609 170.937 270.945 170.657 271.244C170.377 271.533 170.045 271.762 169.663 271.93C169.28 272.089 168.865 272.168 168.417 272.168ZM175.862 272C175.284 272 174.808 271.813 174.434 271.44C174.061 271.067 173.874 270.563 173.874 269.928V263.096H174.924V269.858C174.924 270.269 175.008 270.558 175.176 270.726C175.354 270.894 175.643 270.978 176.044 270.978H176.912L176.982 271.132V272H175.862ZM172.67 266.022V265H176.982V266.022H172.67ZM181.3 272.168C180.637 272.168 180.049 272.014 179.536 271.706C179.023 271.398 178.621 270.969 178.332 270.418C178.043 269.867 177.898 269.228 177.898 268.5C177.898 267.772 178.038 267.133 178.318 266.582C178.607 266.031 179.004 265.602 179.508 265.294C180.021 264.986 180.609 264.832 181.272 264.832C181.925 264.832 182.495 264.991 182.98 265.308C183.475 265.616 183.862 266.055 184.142 266.624C184.422 267.184 184.562 267.837 184.562 268.584V268.71L184.352 268.906H178.514V267.884H183.946L183.484 268.08C183.447 267.613 183.325 267.217 183.12 266.89C182.915 266.554 182.653 266.297 182.336 266.12C182.019 265.943 181.664 265.854 181.272 265.854C180.843 265.854 180.451 265.961 180.096 266.176C179.741 266.381 179.461 266.675 179.256 267.058C179.051 267.441 178.948 267.884 178.948 268.388V268.57C178.948 269.074 179.046 269.522 179.242 269.914C179.447 270.297 179.727 270.6 180.082 270.824C180.437 271.039 180.843 271.146 181.3 271.146C181.757 271.146 182.149 271.039 182.476 270.824C182.803 270.609 183.059 270.315 183.246 269.942H183.4L184.282 270.334C184.021 270.894 183.629 271.342 183.106 271.678C182.593 272.005 181.991 272.168 181.3 272.168ZM186.097 272V265H187.119V267.03L186.811 266.764C186.933 266.372 187.133 266.031 187.413 265.742C187.693 265.453 188.02 265.229 188.393 265.07C188.767 264.911 189.149 264.832 189.541 264.832C190.157 264.832 190.685 265.009 191.123 265.364C191.571 265.709 191.861 266.213 191.991 266.876H191.515C191.627 266.465 191.823 266.111 192.103 265.812C192.383 265.504 192.724 265.266 193.125 265.098C193.536 264.921 193.979 264.832 194.455 264.832C194.941 264.832 195.37 264.939 195.743 265.154C196.126 265.369 196.425 265.686 196.639 266.106C196.863 266.526 196.975 267.049 196.975 267.674V272H195.925V267.912C195.925 267.38 195.846 266.969 195.687 266.68C195.529 266.381 195.319 266.171 195.057 266.05C194.805 265.929 194.525 265.868 194.217 265.868C193.881 265.868 193.545 265.957 193.209 266.134C192.883 266.311 192.607 266.577 192.383 266.932C192.169 267.277 192.061 267.707 192.061 268.22V272H191.011V267.912C191.011 267.38 190.932 266.969 190.773 266.68C190.615 266.381 190.405 266.171 190.143 266.05C189.891 265.929 189.611 265.868 189.303 265.868C188.967 265.868 188.631 265.961 188.295 266.148C187.969 266.325 187.693 266.591 187.469 266.946C187.255 267.291 187.147 267.716 187.147 268.22V272H186.097ZM201.849 272.168C201.186 272.168 200.598 272.014 200.085 271.706C199.571 271.398 199.17 270.969 198.881 270.418C198.591 269.867 198.447 269.228 198.447 268.5C198.447 267.772 198.587 267.133 198.867 266.582C199.156 266.031 199.553 265.602 200.057 265.294C200.57 264.986 201.158 264.832 201.821 264.832C202.474 264.832 203.043 264.991 203.529 265.308C204.023 265.616 204.411 266.055 204.691 266.624C204.971 267.184 205.111 267.837 205.111 268.584V268.71L204.901 268.906H199.063V267.884H204.495L204.033 268.08C203.995 267.613 203.874 267.217 203.669 266.89C203.463 266.554 203.202 266.297 202.885 266.12C202.567 265.943 202.213 265.854 201.821 265.854C201.391 265.854 200.999 265.961 200.645 266.176C200.29 266.381 200.01 266.675 199.805 267.058C199.599 267.441 199.497 267.884 199.497 268.388V268.57C199.497 269.074 199.595 269.522 199.791 269.914C199.996 270.297 200.276 270.6 200.631 270.824C200.985 271.039 201.391 271.146 201.849 271.146C202.306 271.146 202.698 271.039 203.025 270.824C203.351 270.609 203.608 270.315 203.795 269.942H203.949L204.831 270.334C204.569 270.894 204.177 271.342 203.655 271.678C203.141 272.005 202.539 272.168 201.849 272.168ZM206.646 272V265H207.668V267.03L207.36 266.764C207.481 266.372 207.682 266.031 207.962 265.742C208.242 265.453 208.569 265.229 208.942 265.07C209.325 264.911 209.731 264.832 210.16 264.832C210.664 264.832 211.112 264.939 211.504 265.154C211.896 265.369 212.199 265.686 212.414 266.106C212.638 266.526 212.75 267.049 212.75 267.674V272H211.7V267.912C211.7 267.38 211.621 266.969 211.462 266.68C211.303 266.381 211.089 266.171 210.818 266.05C210.557 265.929 210.258 265.868 209.922 265.868C209.539 265.868 209.175 265.961 208.83 266.148C208.494 266.335 208.219 266.605 208.004 266.96C207.799 267.305 207.696 267.725 207.696 268.22V272H206.646ZM216.714 272C216.135 272 215.659 271.813 215.286 271.44C214.913 271.067 214.726 270.563 214.726 269.928V263.096H215.776V269.858C215.776 270.269 215.86 270.558 216.028 270.726C216.205 270.894 216.495 270.978 216.896 270.978H217.764L217.834 271.132V272H216.714ZM213.522 266.022V265H217.834V266.022H213.522ZM223.654 272V263.992C223.654 263.357 223.84 262.853 224.214 262.48C224.587 262.107 225.063 261.92 225.642 261.92H226.412V262.788L226.342 262.942H225.824C225.422 262.942 225.133 263.026 224.956 263.194C224.788 263.362 224.704 263.651 224.704 264.062V272H223.654ZM222.45 266.022V265H226.412V266.022H222.45ZM230.383 272.168C229.711 272.168 229.114 272.014 228.591 271.706C228.078 271.398 227.672 270.969 227.373 270.418C227.084 269.867 226.939 269.228 226.939 268.5C226.939 267.772 227.084 267.133 227.373 266.582C227.672 266.031 228.078 265.602 228.591 265.294C229.114 264.986 229.711 264.832 230.383 264.832C231.064 264.832 231.662 264.986 232.175 265.294C232.688 265.602 233.09 266.031 233.379 266.582C233.678 267.133 233.827 267.772 233.827 268.5C233.827 269.228 233.678 269.867 233.379 270.418C233.09 270.969 232.688 271.398 232.175 271.706C231.662 272.014 231.064 272.168 230.383 272.168ZM230.383 271.146C230.85 271.146 231.26 271.039 231.615 270.824C231.979 270.6 232.264 270.292 232.469 269.9C232.674 269.499 232.777 269.032 232.777 268.5C232.777 267.959 232.674 267.492 232.469 267.1C232.264 266.708 231.979 266.405 231.615 266.19C231.26 265.966 230.85 265.854 230.383 265.854C229.916 265.854 229.501 265.966 229.137 266.19C228.782 266.405 228.502 266.708 228.297 267.1C228.092 267.492 227.989 267.959 227.989 268.5C227.989 269.032 228.092 269.499 228.297 269.9C228.502 270.292 228.782 270.6 229.137 270.824C229.501 271.039 229.916 271.146 230.383 271.146ZM235.371 272V265H236.393V267.03L236.085 266.764C236.243 266.223 236.547 265.793 236.995 265.476C237.452 265.159 237.965 265 238.535 265H239.263V266.022H238.367C237.984 266.022 237.643 266.115 237.345 266.302C237.055 266.489 236.827 266.745 236.659 267.072C236.5 267.399 236.421 267.781 236.421 268.22V272H235.371ZM243.041 272V265H244.063V267.03L243.755 266.764C243.876 266.372 244.077 266.031 244.357 265.742C244.637 265.453 244.963 265.229 245.337 265.07C245.71 264.911 246.093 264.832 246.485 264.832C247.101 264.832 247.628 265.009 248.067 265.364C248.515 265.709 248.804 266.213 248.935 266.876H248.459C248.571 266.465 248.767 266.111 249.047 265.812C249.327 265.504 249.667 265.266 250.069 265.098C250.479 264.921 250.923 264.832 251.399 264.832C251.884 264.832 252.313 264.939 252.687 265.154C253.069 265.369 253.368 265.686 253.583 266.106C253.807 266.526 253.919 267.049 253.919 267.674V272H252.869V267.912C252.869 267.38 252.789 266.969 252.631 266.68C252.472 266.381 252.262 266.171 252.001 266.05C251.749 265.929 251.469 265.868 251.161 265.868C250.825 265.868 250.489 265.957 250.153 266.134C249.826 266.311 249.551 266.577 249.327 266.932C249.112 267.277 249.005 267.707 249.005 268.22V272H247.955V267.912C247.955 267.38 247.875 266.969 247.717 266.68C247.558 266.381 247.348 266.171 247.087 266.05C246.835 265.929 246.555 265.868 246.247 265.868C245.911 265.868 245.575 265.961 245.239 266.148C244.912 266.325 244.637 266.591 244.413 266.946C244.198 267.291 244.091 267.716 244.091 268.22V272H243.041ZM256.391 274.8V274.688L257.525 272L257.889 271.23L260.423 265H261.515V265.112L257.455 274.8H256.391ZM257.539 272L254.697 265.112V265H255.789L258.183 270.936V272H257.539ZM268.855 272.168C268.379 272.168 267.94 272.075 267.539 271.888C267.137 271.692 266.792 271.421 266.503 271.076C266.213 270.731 265.999 270.329 265.859 269.872V267.128C265.999 266.661 266.213 266.26 266.503 265.924C266.792 265.579 267.137 265.313 267.539 265.126C267.94 264.93 268.379 264.832 268.855 264.832C269.48 264.832 270.04 264.991 270.535 265.308C271.029 265.625 271.421 266.059 271.711 266.61C272.009 267.161 272.159 267.791 272.159 268.5C272.159 269.209 272.009 269.839 271.711 270.39C271.421 270.941 271.029 271.375 270.535 271.692C270.04 272.009 269.48 272.168 268.855 272.168ZM265.355 272V261.92L266.363 261.794L266.405 261.906V267.618L266.209 268.5L266.377 269.382V272H265.355ZM268.813 271.146C269.261 271.146 269.657 271.034 270.003 270.81C270.348 270.586 270.619 270.278 270.815 269.886C271.011 269.485 271.109 269.023 271.109 268.5C271.109 267.977 271.011 267.52 270.815 267.128C270.619 266.727 270.348 266.414 270.003 266.19C269.657 265.966 269.261 265.854 268.813 265.854C268.355 265.854 267.945 265.966 267.581 266.19C267.217 266.414 266.927 266.727 266.713 267.128C266.507 267.52 266.405 267.977 266.405 268.5C266.405 269.023 266.507 269.485 266.713 269.886C266.927 270.278 267.217 270.586 267.581 270.81C267.945 271.034 268.355 271.146 268.813 271.146ZM279.727 265V272H278.705V269.97L279.013 270.236C278.892 270.628 278.691 270.969 278.411 271.258C278.14 271.547 277.814 271.771 277.431 271.93C277.048 272.089 276.642 272.168 276.213 272.168C275.709 272.168 275.261 272.061 274.869 271.846C274.486 271.631 274.183 271.314 273.959 270.894C273.735 270.474 273.623 269.951 273.623 269.326V265H274.673V269.088C274.673 269.611 274.752 270.021 274.911 270.32C275.07 270.619 275.284 270.829 275.555 270.95C275.826 271.071 276.124 271.132 276.451 271.132C276.843 271.132 277.207 271.039 277.543 270.852C277.879 270.665 278.15 270.395 278.355 270.04C278.57 269.685 278.677 269.265 278.677 268.78V265H279.727ZM283.931 272.168C283.212 272.168 282.606 271.995 282.111 271.65C281.616 271.295 281.29 270.801 281.131 270.166L282.097 269.928L282.251 269.956C282.354 270.329 282.568 270.623 282.895 270.838C283.222 271.043 283.604 271.146 284.043 271.146C284.482 271.146 284.855 271.048 285.163 270.852C285.48 270.647 285.639 270.381 285.639 270.054C285.639 269.783 285.546 269.569 285.359 269.41C285.182 269.242 284.911 269.116 284.547 269.032L283.259 268.738C282.606 268.589 282.125 268.351 281.817 268.024C281.518 267.688 281.369 267.291 281.369 266.834C281.369 266.442 281.476 266.097 281.691 265.798C281.906 265.499 282.2 265.266 282.573 265.098C282.956 264.921 283.39 264.832 283.875 264.832C284.584 264.832 285.182 265.009 285.667 265.364C286.152 265.719 286.474 266.218 286.633 266.862L285.653 267.072L285.499 267.044C285.406 266.661 285.2 266.367 284.883 266.162C284.575 265.957 284.23 265.854 283.847 265.854C283.446 265.854 283.11 265.943 282.839 266.12C282.578 266.297 282.447 266.521 282.447 266.792C282.447 267.025 282.531 267.221 282.699 267.38C282.876 267.529 283.156 267.646 283.539 267.73L284.841 268.024C285.485 268.173 285.956 268.411 286.255 268.738C286.563 269.065 286.717 269.48 286.717 269.984C286.717 270.432 286.596 270.819 286.353 271.146C286.11 271.473 285.779 271.725 285.359 271.902C284.948 272.079 284.472 272.168 283.931 272.168ZM288.171 272V265H289.221V272H288.171ZM288.703 263.628C288.489 263.628 288.307 263.553 288.157 263.404C288.008 263.255 287.933 263.073 287.933 262.858C287.933 262.643 288.008 262.461 288.157 262.312C288.307 262.163 288.489 262.088 288.703 262.088C288.918 262.088 289.1 262.163 289.249 262.312C289.399 262.461 289.473 262.643 289.473 262.858C289.473 263.073 289.399 263.255 289.249 263.404C289.1 263.553 288.918 263.628 288.703 263.628ZM291.179 272V265H292.201V267.03L291.893 266.764C292.015 266.372 292.215 266.031 292.495 265.742C292.775 265.453 293.102 265.229 293.475 265.07C293.858 264.911 294.264 264.832 294.693 264.832C295.197 264.832 295.645 264.939 296.037 265.154C296.429 265.369 296.733 265.686 296.947 266.106C297.171 266.526 297.283 267.049 297.283 267.674V272H296.233V267.912C296.233 267.38 296.154 266.969 295.995 266.68C295.837 266.381 295.622 266.171 295.351 266.05C295.09 265.929 294.791 265.868 294.455 265.868C294.073 265.868 293.709 265.961 293.363 266.148C293.027 266.335 292.752 266.605 292.537 266.96C292.332 267.305 292.229 267.725 292.229 268.22V272H291.179ZM302.159 272.168C301.497 272.168 300.909 272.014 300.395 271.706C299.882 271.398 299.481 270.969 299.191 270.418C298.902 269.867 298.757 269.228 298.757 268.5C298.757 267.772 298.897 267.133 299.177 266.582C299.467 266.031 299.863 265.602 300.367 265.294C300.881 264.986 301.469 264.832 302.131 264.832C302.785 264.832 303.354 264.991 303.839 265.308C304.334 265.616 304.721 266.055 305.001 266.624C305.281 267.184 305.421 267.837 305.421 268.584V268.71L305.211 268.906H299.373V267.884H304.805L304.343 268.08C304.306 267.613 304.185 267.217 303.979 266.89C303.774 266.554 303.513 266.297 303.195 266.12C302.878 265.943 302.523 265.854 302.131 265.854C301.702 265.854 301.31 265.961 300.955 266.176C300.601 266.381 300.321 266.675 300.115 267.058C299.91 267.441 299.807 267.884 299.807 268.388V268.57C299.807 269.074 299.905 269.522 300.101 269.914C300.307 270.297 300.587 270.6 300.941 270.824C301.296 271.039 301.702 271.146 302.159 271.146C302.617 271.146 303.009 271.039 303.335 270.824C303.662 270.609 303.919 270.315 304.105 269.942H304.259L305.141 270.334C304.88 270.894 304.488 271.342 303.965 271.678C303.452 272.005 302.85 272.168 302.159 272.168ZM309.197 272.168C308.478 272.168 307.871 271.995 307.377 271.65C306.882 271.295 306.555 270.801 306.397 270.166L307.363 269.928L307.517 269.956C307.619 270.329 307.834 270.623 308.161 270.838C308.487 271.043 308.87 271.146 309.309 271.146C309.747 271.146 310.121 271.048 310.429 270.852C310.746 270.647 310.905 270.381 310.905 270.054C310.905 269.783 310.811 269.569 310.625 269.41C310.447 269.242 310.177 269.116 309.813 269.032L308.525 268.738C307.871 268.589 307.391 268.351 307.083 268.024C306.784 267.688 306.635 267.291 306.635 266.834C306.635 266.442 306.742 266.097 306.957 265.798C307.171 265.499 307.465 265.266 307.839 265.098C308.221 264.921 308.655 264.832 309.141 264.832C309.85 264.832 310.447 265.009 310.933 265.364C311.418 265.719 311.74 266.218 311.899 266.862L310.919 267.072L310.765 267.044C310.671 266.661 310.466 266.367 310.149 266.162C309.841 265.957 309.495 265.854 309.113 265.854C308.711 265.854 308.375 265.943 308.105 266.12C307.843 266.297 307.713 266.521 307.713 266.792C307.713 267.025 307.797 267.221 307.965 267.38C308.142 267.529 308.422 267.646 308.805 267.73L310.107 268.024C310.751 268.173 311.222 268.411 311.521 268.738C311.829 269.065 311.983 269.48 311.983 269.984C311.983 270.432 311.861 270.819 311.619 271.146C311.376 271.473 311.045 271.725 310.625 271.902C310.214 272.079 309.738 272.168 309.197 272.168ZM315.404 272.168C314.685 272.168 314.078 271.995 313.584 271.65C313.089 271.295 312.762 270.801 312.604 270.166L313.57 269.928L313.724 269.956C313.826 270.329 314.041 270.623 314.368 270.838C314.694 271.043 315.077 271.146 315.516 271.146C315.954 271.146 316.328 271.048 316.636 270.852C316.953 270.647 317.112 270.381 317.112 270.054C317.112 269.783 317.018 269.569 316.832 269.41C316.654 269.242 316.384 269.116 316.02 269.032L314.732 268.738C314.078 268.589 313.598 268.351 313.29 268.024C312.991 267.688 312.842 267.291 312.842 266.834C312.842 266.442 312.949 266.097 313.164 265.798C313.378 265.499 313.672 265.266 314.046 265.098C314.428 264.921 314.862 264.832 315.348 264.832C316.057 264.832 316.654 265.009 317.14 265.364C317.625 265.719 317.947 266.218 318.106 266.862L317.126 267.072L316.972 267.044C316.878 266.661 316.673 266.367 316.356 266.162C316.048 265.957 315.702 265.854 315.32 265.854C314.918 265.854 314.582 265.943 314.312 266.12C314.05 266.297 313.92 266.521 313.92 266.792C313.92 267.025 314.004 267.221 314.172 267.38C314.349 267.529 314.629 267.646 315.012 267.73L316.314 268.024C316.958 268.173 317.429 268.411 317.728 268.738C318.036 269.065 318.19 269.48 318.19 269.984C318.19 270.432 318.068 270.819 317.826 271.146C317.583 271.473 317.252 271.725 316.832 271.902C316.421 272.079 315.945 272.168 315.404 272.168Z" fill="#333333"/>
</g>
<rect x="11" y="318" width="32" height="32" rx="16" fill="#008751"/>
<g clip-path="url(#clip3_1037_1345)">
<path fill-rule="evenodd" clip-rule="evenodd" d="M31.667 326.5C32.7721 326.5 33.8319 326.939 34.6133 327.72C35.3947 328.502 35.8337 329.562 35.8337 330.667V337.333C35.8337 338.438 35.3947 339.498 34.6133 340.28C33.8319 341.061 32.7721 341.5 31.667 341.5H20.0003C19.7793 341.5 19.5674 341.412 19.4111 341.256C19.2548 341.1 19.167 340.888 19.167 340.667V330.667C19.167 329.562 19.606 328.502 20.3874 327.72C21.1688 326.939 22.2286 326.5 23.3337 326.5H31.667ZM25.0003 332.333C24.7962 332.333 24.5992 332.408 24.4467 332.544C24.2942 332.68 24.1967 332.866 24.1728 333.069L24.167 333.167V334.833C24.1672 335.046 24.2486 335.25 24.3944 335.404C24.5402 335.559 24.7395 335.652 24.9515 335.664C25.1635 335.677 25.3723 335.608 25.5352 335.471C25.6981 335.335 25.8027 335.142 25.8278 334.931L25.8337 334.833V333.167C25.8337 332.946 25.7459 332.734 25.5896 332.577C25.4333 332.421 25.2213 332.333 25.0003 332.333ZM30.0003 332.333C29.7793 332.333 29.5674 332.421 29.4111 332.577C29.2548 332.734 29.167 332.946 29.167 333.167V334.833C29.167 335.054 29.2548 335.266 29.4111 335.423C29.5674 335.579 29.7793 335.667 30.0003 335.667C30.2213 335.667 30.4333 335.579 30.5896 335.423C30.7459 335.266 30.8337 335.054 30.8337 334.833V333.167C30.8337 332.946 30.7459 332.734 30.5896 332.577C30.4333 332.421 30.2213 332.333 30.0003 332.333Z" fill="white"/>
</g>
<g filter="url(#filter1_d_1037_1345)">
<path d="M51 324.4C51 322.16 51 321.04 51.436 320.184C51.8195 319.431 52.4314 318.819 53.184 318.436C54.0397 318 55.1598 318 57.4 318H99.4412C102.124 318 103.465 318 104.592 318.143C112.739 319.175 119.154 325.59 120.187 333.738C120.329 334.864 120.329 336.206 120.329 338.888C120.329 341.571 120.329 342.912 120.187 344.039C119.154 352.186 112.739 358.602 104.592 359.634C103.465 359.776 102.124 359.776 99.4412 359.776H79.8C69.7191 359.776 64.6786 359.776 60.8282 357.815C57.4413 356.089 54.6876 353.335 52.9619 349.948C51 346.098 51 341.057 51 330.976V324.4Z" fill="#F5F5F5" shape-rendering="crispEdges"/>
<circle cx="71.8882" cy="338.888" r="4.88824" fill="#D9D9D9"/>
<circle cx="85.6646" cy="338.888" r="4.88824" fill="#D9D9D9"/>
<circle cx="99.4412" cy="338.888" r="4.88824" fill="#D9D9D9"/>
</g>
</g>
<defs>
<filter id="filter0_d_1037_1345" x="137" y="199" width="245" height="97" filterUnits="userSpaceOnUse" color-interpolation-filters="sRGB">
<feFlood flood-opacity="0" result="BackgroundImageFix"/>
<feColorMatrix in="SourceAlpha" type="matrix" values="0 0 0 0 0 0 0 0 0 0 0 0 0 0 0 0 0 0 127 0" result="hardAlpha"/>
<feOffset dy="1"/>
<feGaussianBlur stdDeviation="0.5"/>
<feComposite in2="hardAlpha" operator="out"/>
<feColorMatrix type="matrix" values="0 0 0 0 0 0 0 0 0 0 0 0 0 0 0 0 0 0 0.04 0"/>
<feBlend mode="normal" in2="BackgroundImageFix" result="effect1_dropShadow_1037_1345"/>
<feBlend mode="normal" in="SourceGraphic" in2="effect1_dropShadow_1037_1345" result="shape"/>
</filter>
<filter id="filter1_d_1037_1345" x="50" y="318" width="71.3293" height="43.7764" filterUnits="userSpaceOnUse" color-interpolation-filters="sRGB">
<feFlood flood-opacity="0" result="BackgroundImageFix"/>
<feColorMatrix in="SourceAlpha" type="matrix" values="0 0 0 0 0 0 0 0 0 0 0 0 0 0 0 0 0 0 127 0" result="hardAlpha"/>
<feOffset dy="1"/>
<feGaussianBlur stdDeviation="0.5"/>
<feComposite in2="hardAlpha" operator="out"/>
<feColorMatrix type="matrix" values="0 0 0 0 0 0 0 0 0 0 0 0 0 0 0 0 0 0 0.04 0"/>
<feBlend mode="normal" in2="BackgroundImageFix" result="effect1_dropShadow_1037_1345"/>
<feBlend mode="normal" in="SourceGraphic" in2="effect1_dropShadow_1037_1345" result="shape"/>
</filter>
<clipPath id="clip0_1037_1345">
<rect width="393" height="852" rx="48" fill="white"/>
</clipPath>
<clipPath id="clip1_1037_1345">
<rect width="24" height="24" fill="white" transform="translate(326.5 23)"/>
</clipPath>
<clipPath id="clip2_1037_1345">
<rect width="20" height="20" fill="white" transform="translate(207 157)"/>
</clipPath>
<clipPath id="clip3_1037_1345">
<rect width="20" height="20" fill="white" transform="translate(17.5 324)"/>
</clipPath>
</defs>
</svg>
