<svg width="19" height="14" viewBox="0 0 19 14" fill="none" xmlns="http://www.w3.org/2000/svg">
<path d="M5.94979 11.95C6.04276 11.8571 6.11652 11.7468 6.16685 11.6254C6.21717 11.504 6.24307 11.3739 6.24307 11.2425C6.24307 11.1111 6.21717 10.981 6.16685 10.8596C6.11652 10.7382 6.04276 10.6279 5.94979 10.535L3.41379 8H12.2468C12.512 8 12.7664 7.89464 12.9539 7.70711C13.1414 7.51957 13.2468 7.26522 13.2468 7C13.2468 6.73478 13.1414 6.48043 12.9539 6.29289C12.7664 6.10536 12.512 6 12.2468 6H3.41379L5.94979 3.464C6.13729 3.27636 6.24258 3.02192 6.24249 2.75665C6.24239 2.49138 6.13693 2.23701 5.94929 2.0495C5.76165 1.86199 5.5072 1.7567 5.24193 1.7568C4.97666 1.75689 4.72229 1.86236 4.53479 2.05L0.292786 6.293C0.105315 6.48053 0 6.73484 0 7C0 7.26516 0.105315 7.51947 0.292786 7.707L4.53479 11.95C4.62766 12.043 4.73795 12.1167 4.85935 12.1671C4.98074 12.2174 5.11087 12.2433 5.24229 12.2433C5.3737 12.2433 5.50383 12.2174 5.62523 12.1671C5.74662 12.1167 5.85691 12.043 5.94979 11.95ZM18.2468 1C18.2468 0.734784 18.1414 0.48043 17.9539 0.292893C17.7664 0.105357 17.512 0 17.2468 0C16.9816 0 16.7272 0.105357 16.5397 0.292893C16.3521 0.48043 16.2468 0.734784 16.2468 1V13C16.2468 13.2652 16.3521 13.5196 16.5397 13.7071C16.7272 13.8946 16.9816 14 17.2468 14C17.512 14 17.7664 13.8946 17.9539 13.7071C18.1414 13.5196 18.2468 13.2652 18.2468 13V1Z" fill="white"/>
</svg>
