<svg width="24" height="24" viewBox="0 0 24 24" fill="none" xmlns="http://www.w3.org/2000/svg">
<g clip-path="url(#clip0_456_772)">
<path d="M14.571 13.813C14.571 14.099 14.341 14.331 14.057 14.331H0.514C0.23 14.331 0 14.099 0 13.813V10.091C0 9.856 0.195 9.669 0.429 9.669C5.399 9.669 9.429 5.611 9.429 0.604V0.553C9.427 0.253 9.661 0 9.958 0H14.057C14.341 0 14.571 0.232 14.571 0.518V13.813Z" fill="#008751"/>
<path d="M9.4292 10.187C9.4292 9.90101 9.6592 9.66901 9.9432 9.66901H23.4862C23.7702 9.66901 24.0002 9.90101 24.0002 10.187V13.909C24.0002 14.145 23.8052 14.331 23.5712 14.331C18.6012 14.331 14.5712 18.389 14.5712 23.396V23.447C14.5732 23.747 14.3392 24 14.0422 24H9.9432C9.6592 24 9.4292 23.768 9.4292 23.482V10.187Z" fill="#008751"/>
</g>
<defs>
<clipPath id="clip0_456_772">
<rect width="24" height="24" fill="white"/>
</clipPath>
</defs>
</svg>
