<svg width="16" height="24" viewBox="0 0 16 24" fill="none" xmlns="http://www.w3.org/2000/svg">
<path d="M4.5375 9.075C5.43493 9.075 6.31221 8.80888 7.0584 8.3103C7.80459 7.81171 8.38617 7.10305 8.72961 6.27393C9.07304 5.44481 9.1629 4.53247 8.98782 3.65228C8.81274 2.77209 8.38058 1.96359 7.74599 1.32901C7.11141 0.694425 6.30291 0.262268 5.42272 0.087188C4.54253 -0.0878924 3.63019 0.00196841 2.80107 0.345401C1.97195 0.688834 1.2633 1.27042 0.764709 2.0166C0.266123 2.76279 0 3.64007 0 4.5375C0.00132345 5.74051 0.479808 6.89388 1.33047 7.74454C2.18113 8.5952 3.33448 9.07368 4.5375 9.075ZM4.5375 1.875C5.06377 1.87649 5.5778 2.0339 6.01466 2.32736C6.45151 2.62082 6.7916 3.03716 6.99197 3.5238C7.19234 4.01043 7.24401 4.54554 7.14043 5.06151C7.03685 5.57749 6.78267 6.0512 6.41002 6.42281C6.03736 6.79442 5.56295 7.04725 5.04668 7.14938C4.53041 7.25151 3.99546 7.19834 3.50938 6.99661C3.02331 6.79487 2.60793 6.45361 2.3157 6.01593C2.02347 5.57824 1.8675 5.06377 1.8675 4.5375C1.86883 3.83047 2.15079 3.15289 2.65144 2.65364C3.15209 2.1544 3.83047 1.87434 4.5375 1.875Z" fill="#008751"/>
<path d="M10.8979 14.5C10.0004 14.5 9.12314 14.7661 8.37695 15.2647C7.63077 15.7633 7.04918 16.472 6.70575 17.3011C6.36232 18.1302 6.27246 19.0425 6.44754 19.9227C6.62262 20.8029 7.05477 21.6114 7.68935 22.246C8.32394 22.8806 9.13244 23.3127 10.0126 23.4878C10.8928 23.6629 11.8052 23.573 12.6343 23.2296C13.4634 22.8862 14.1721 22.3046 14.6706 21.5584C15.1692 20.8122 15.4353 19.9349 15.4353 19.0375C15.434 17.8345 14.9555 16.6811 14.1049 15.8305C13.2542 14.9798 12.1009 14.5013 10.8979 14.5ZM10.8979 21.6975C10.3712 21.6975 9.85629 21.5413 9.41839 21.2486C8.98049 20.9559 8.63923 20.54 8.43778 20.0533C8.23634 19.5667 8.18376 19.0312 8.2867 18.5146C8.38963 17.9981 8.64346 17.5237 9.01607 17.1514C9.38868 16.7792 9.86332 16.5258 10.38 16.4234C10.8966 16.3209 11.432 16.374 11.9185 16.5759C12.4049 16.7778 12.8206 17.1194 13.1129 17.5576C13.4051 17.9958 13.5608 18.5108 13.5603 19.0375C13.559 19.743 13.278 20.4192 12.7789 20.9178C12.2798 21.4165 11.6034 21.6968 10.8979 21.6975Z" fill="#008751"/>
<path d="M15.31 10.9492H0.125V12.8242H15.31V10.9492Z" fill="#008751"/>
</svg>
