<svg width="18" height="19" viewBox="0 0 18 19" fill="none" xmlns="http://www.w3.org/2000/svg">
<path d="M7.12305 3.21094C5.6733 3.21094 4.49805 4.38619 4.49805 5.83594C4.49805 7.28569 5.6733 8.46094 7.12305 8.46094C8.57277 8.46094 9.74802 7.28569 9.74802 5.83594C9.74802 4.38619 8.57277 3.21094 7.12305 3.21094Z" fill="white"/>
<path d="M16.1805 11.5378C15.6487 10.2063 15.0883 9.16989 14.4918 8.46482C13.9025 7.76832 13.1699 7.2756 12.3123 7.34665C10.8212 7.47018 9.83257 8.68637 9.17355 9.55007C9.07822 9.67494 8.9895 9.79329 8.9055 9.90534C8.66355 10.228 8.4612 10.4978 8.25735 10.7169C8.0037 10.9895 7.88775 11.0227 7.87372 11.0267C7.77592 11.0267 7.63702 10.9934 7.42243 10.8826C7.22713 10.7818 7.02778 10.6496 6.77957 10.4852L6.68296 10.4212C6.15205 10.0702 5.38537 9.56634 4.45282 9.56634C3.81287 9.56634 3.29307 9.89394 2.9075 10.2676C2.52001 10.643 2.19904 11.1293 1.93899 11.609L1.87983 11.7179C1.5464 12.3299 1.23872 12.8947 1.3282 13.6153C1.36697 13.9277 1.4929 14.2321 1.6412 14.4812C1.7895 14.7302 1.99717 14.9861 2.25325 15.169C2.58681 15.4073 2.94562 15.5044 3.31943 15.5481C3.66223 15.5882 4.07475 15.5881 4.54114 15.5881H13.3463C13.855 15.5881 14.2909 15.5881 14.6447 15.5533C15.0169 15.5166 15.3854 15.4352 15.7197 15.2136C16.1966 14.8976 16.563 14.3567 16.6796 13.7966C16.7595 13.4127 16.7077 13.0553 16.6093 12.7067C16.5178 12.3821 16.3669 12.0045 16.1941 11.5718L16.1805 11.5378Z" fill="white"/>
</svg>
