<svg width="15" height="15" viewBox="0 0 15 15" fill="none" xmlns="http://www.w3.org/2000/svg">
<path fill-rule="evenodd" clip-rule="evenodd" d="M0 7.5C0 3.35786 3.35786 0 7.5 0C11.6421 0 15 3.35786 15 7.5C15 11.6421 11.6421 15 7.5 15C3.35786 15 0 11.6421 0 7.5ZM10.5 8.24996C10.9142 8.24996 11.25 7.91416 11.25 7.49992C11.25 7.0857 10.9142 6.74992 10.5 6.74992L8.25 6.75V4.50009C8.25 4.08588 7.91422 3.75009 7.5 3.75009C7.08577 3.75009 6.75 4.08588 6.75 4.50009V6.75L4.49998 6.75007C4.08577 6.75007 3.74998 7.08592 3.75 7.50007C3.75001 7.91426 4.0858 8.25006 4.50002 8.25006L6.75 8.24996V10.5C6.75 10.9143 7.08577 11.25 7.5 11.25C7.91422 11.25 8.25 10.9143 8.25 10.5V8.24996H10.5Z" fill="white"/>
</svg>
