<svg width="24" height="24" viewBox="0 0 24 24" fill="none" xmlns="http://www.w3.org/2000/svg">
<g clip-path="url(#clip0_34_4228)">
<path d="M12.25 2.5C12.4949 2.50003 12.7313 2.58996 12.9144 2.75272C13.0974 2.91547 13.2143 3.13975 13.243 3.383L13.25 3.5V19.5C13.2497 19.7549 13.1521 20 12.9772 20.1854C12.8022 20.3707 12.563 20.4822 12.3086 20.4972C12.0542 20.5121 11.8036 20.4293 11.6082 20.2657C11.4127 20.1021 11.2871 19.8701 11.257 19.617L11.25 19.5V3.5C11.25 3.23478 11.3554 2.98043 11.5429 2.79289C11.7304 2.60536 11.9848 2.5 12.25 2.5ZM8.25 5.5C8.51522 5.5 8.76957 5.60536 8.95711 5.79289C9.14464 5.98043 9.25 6.23478 9.25 6.5V16.5C9.25 16.7652 9.14464 17.0196 8.95711 17.2071C8.76957 17.3946 8.51522 17.5 8.25 17.5C7.98478 17.5 7.73043 17.3946 7.54289 17.2071C7.35536 17.0196 7.25 16.7652 7.25 16.5V6.5C7.25 6.23478 7.35536 5.98043 7.54289 5.79289C7.73043 5.60536 7.98478 5.5 8.25 5.5ZM16.25 5.5C16.5152 5.5 16.7696 5.60536 16.9571 5.79289C17.1446 5.98043 17.25 6.23478 17.25 6.5V16.5C17.25 16.7652 17.1446 17.0196 16.9571 17.2071C16.7696 17.3946 16.5152 17.5 16.25 17.5C15.9848 17.5 15.7304 17.3946 15.5429 17.2071C15.3554 17.0196 15.25 16.7652 15.25 16.5V6.5C15.25 6.23478 15.3554 5.98043 15.5429 5.79289C15.7304 5.60536 15.9848 5.5 16.25 5.5ZM4.25 8.5C4.51522 8.5 4.76957 8.60536 4.95711 8.79289C5.14464 8.98043 5.25 9.23478 5.25 9.5V13.5C5.25 13.7652 5.14464 14.0196 4.95711 14.2071C4.76957 14.3946 4.51522 14.5 4.25 14.5C3.98478 14.5 3.73043 14.3946 3.54289 14.2071C3.35536 14.0196 3.25 13.7652 3.25 13.5V9.5C3.25 9.23478 3.35536 8.98043 3.54289 8.79289C3.73043 8.60536 3.98478 8.5 4.25 8.5ZM20.25 8.5C20.4949 8.50003 20.7313 8.58996 20.9144 8.75272C21.0974 8.91547 21.2143 9.13975 21.243 9.383L21.25 9.5V13.5C21.2497 13.7549 21.1521 14 20.9772 14.1854C20.8022 14.3707 20.563 14.4822 20.3086 14.4972C20.0542 14.5121 19.8036 14.4293 19.6082 14.2657C19.4127 14.1021 19.2871 13.8701 19.257 13.617L19.25 13.5V9.5C19.25 9.23478 19.3554 8.98043 19.5429 8.79289C19.7304 8.60536 19.9848 8.5 20.25 8.5Z" fill="#333333"/>
</g>
<defs>
<clipPath id="clip0_34_4228">
<rect width="24" height="24" fill="white"/>
</clipPath>
</defs>
</svg>
